mtllib blox-logo.mtl
o body
usemtl blox_dark
v -0.4399999976158142 0.06000000238418579 -0.5
v -0.4399999976158142 0.9399999976158142 -0.5
v 0.4399999976158142 0.9399999976158142 -0.5
v 0.4399999976158142 0.9399999976158142 -0.5
v 0.4399999976158142 0.06000000238418579 -0.5
v -0.4399999976158142 0.06000000238418579 -0.5
v 0.4399999976158142 0.9399999976158142 0.5
v -0.4399999976158142 0.9399999976158142 0.5
v -0.4399999976158142 0.06000000238418579 0.5
v -0.4399999976158142 0.06000000238418579 0.5
v 0.4399999976158142 0.06000000238418579 0.5
v 0.4399999976158142 0.9399999976158142 0.5
v -0.4399999976158142 0.06000000238418579 -0.5
v 0.4399999976158142 0.06000000238418579 -0.5
v -0.45854100584983826 0.04145899415016174 -0.49706339836120605
v 0.4399999976158142 0.06000000238418579 -0.5
v 0.45854100584983826 0.04145899415016174 -0.49706339836120605
v -0.45854100584983826 0.04145899415016174 -0.49706339836120605
v -0.45854100584983826 0.04145899415016174 -0.49706339836120605
v 0.45854100584983826 0.04145899415016174 -0.49706339836120605
v -0.47526711225509644 0.024732887744903564 -0.48854100704193115
v 0.45854100584983826 0.04145899415016174 -0.49706339836120605
v 0.47526711225509644 0.024732887744903564 -0.48854100704193115
v -0.47526711225509644 0.024732887744903564 -0.48854100704193115
v -0.47526711225509644 0.024732887744903564 -0.48854100704193115
v 0.47526711225509644 0.024732887744903564 -0.48854100704193115
v -0.48854100704193115 0.011458992958068848 -0.47526711225509644
v 0.47526711225509644 0.024732887744903564 -0.48854100704193115
v 0.48854100704193115 0.011458992958068848 -0.47526711225509644
v -0.48854100704193115 0.011458992958068848 -0.47526711225509644
v -0.48854100704193115 0.011458992958068848 -0.47526711225509644
v 0.48854100704193115 0.011458992958068848 -0.47526711225509644
v -0.49706339836120605 0.0029366016387939453 -0.45854100584983826
v 0.48854100704193115 0.011458992958068848 -0.47526711225509644
v 0.49706339836120605 0.0029366016387939453 -0.45854100584983826
v -0.49706339836120605 0.0029366016387939453 -0.45854100584983826
v -0.49706339836120605 0.0029366016387939453 -0.45854100584983826
v 0.49706339836120605 0.0029366016387939453 -0.45854100584983826
v -0.5 0 -0.4399999976158142
v 0.49706339836120605 0.0029366016387939453 -0.45854100584983826
v 0.5 0 -0.4399999976158142
v -0.5 0 -0.4399999976158142
v -0.5 0 -0.4399999976158142
v 0.5 0 -0.4399999976158142
v -0.5 0 0.4399999976158142
v 0.5 0 -0.4399999976158142
v 0.5 0 0.4399999976158142
v -0.5 0 0.4399999976158142
v -0.5 0 0.4399999976158142
v 0.5 0 0.4399999976158142
v -0.49706339836120605 0.0029366016387939453 0.45854103565216064
v 0.5 0 0.4399999976158142
v 0.49706339836120605 0.0029366016387939453 0.45854103565216064
v -0.49706339836120605 0.0029366016387939453 0.45854103565216064
v -0.49706339836120605 0.0029366016387939453 0.45854103565216064
v 0.49706339836120605 0.0029366016387939453 0.45854103565216064
v -0.48854100704193115 0.011458992958068848 0.47526711225509644
v 0.49706339836120605 0.0029366016387939453 0.45854103565216064
v 0.48854100704193115 0.011458992958068848 0.47526711225509644
v -0.48854100704193115 0.011458992958068848 0.47526711225509644
v -0.48854100704193115 0.011458992958068848 0.47526711225509644
v 0.48854100704193115 0.011458992958068848 0.47526711225509644
v -0.47526711225509644 0.024732887744903564 0.48854100704193115
v 0.48854100704193115 0.011458992958068848 0.47526711225509644
v 0.47526711225509644 0.024732887744903564 0.48854100704193115
v -0.47526711225509644 0.024732887744903564 0.48854100704193115
v -0.47526711225509644 0.024732887744903564 0.48854100704193115
v 0.47526711225509644 0.024732887744903564 0.48854100704193115
v -0.45854100584983826 0.04145899415016174 0.49706339836120605
v 0.47526711225509644 0.024732887744903564 0.48854100704193115
v 0.45854100584983826 0.04145899415016174 0.49706339836120605
v -0.45854100584983826 0.04145899415016174 0.49706339836120605
v -0.45854100584983826 0.04145899415016174 0.49706339836120605
v 0.45854100584983826 0.04145899415016174 0.49706339836120605
v -0.4399999976158142 0.06000000238418579 0.5
v 0.45854100584983826 0.04145899415016174 0.49706339836120605
v 0.4399999976158142 0.06000000238418579 0.5
v -0.4399999976158142 0.06000000238418579 0.5
v 0.4399999976158142 0.06000000238418579 -0.5
v 0.4399999976158142 0.9399999976158142 -0.5
v 0.45854100584983826 0.04145899415016174 -0.49706339836120605
v 0.4399999976158142 0.9399999976158142 -0.5
v 0.45854100584983826 0.9585410058498383 -0.49706339836120605
v 0.45854100584983826 0.04145899415016174 -0.49706339836120605
v 0.45854100584983826 0.04145899415016174 -0.49706339836120605
v 0.45854100584983826 0.9585410058498383 -0.49706339836120605
v 0.47526711225509644 0.024732887744903564 -0.48854100704193115
v 0.45854100584983826 0.9585410058498383 -0.49706339836120605
v 0.47526711225509644 0.9752671122550964 -0.48854100704193115
v 0.47526711225509644 0.024732887744903564 -0.48854100704193115
v 0.47526711225509644 0.024732887744903564 -0.48854100704193115
v 0.47526711225509644 0.9752671122550964 -0.48854100704193115
v 0.48854100704193115 0.011458992958068848 -0.47526711225509644
v 0.47526711225509644 0.9752671122550964 -0.48854100704193115
v 0.48854100704193115 0.9885410070419312 -0.47526711225509644
v 0.48854100704193115 0.011458992958068848 -0.47526711225509644
v 0.48854100704193115 0.011458992958068848 -0.47526711225509644
v 0.48854100704193115 0.9885410070419312 -0.47526711225509644
v 0.49706339836120605 0.0029366016387939453 -0.45854100584983826
v 0.48854100704193115 0.9885410070419312 -0.47526711225509644
v 0.49706339836120605 0.997063398361206 -0.45854100584983826
v 0.49706339836120605 0.0029366016387939453 -0.45854100584983826
v 0.49706339836120605 0.0029366016387939453 -0.45854100584983826
v 0.49706339836120605 0.997063398361206 -0.45854100584983826
v 0.5 0 -0.4399999976158142
v 0.49706339836120605 0.997063398361206 -0.45854100584983826
v 0.5 1 -0.4399999976158142
v 0.5 0 -0.4399999976158142
v 0.5 0 -0.4399999976158142
v 0.5 1 -0.4399999976158142
v 0.5 0 0.4399999976158142
v 0.5 1 -0.4399999976158142
v 0.5 1 0.4399999976158142
v 0.5 0 0.4399999976158142
v 0.5 0 0.4399999976158142
v 0.5 1 0.4399999976158142
v 0.49706339836120605 0.0029366016387939453 0.45854103565216064
v 0.5 1 0.4399999976158142
v 0.49706339836120605 0.997063398361206 0.45854103565216064
v 0.49706339836120605 0.0029366016387939453 0.45854103565216064
v 0.49706339836120605 0.0029366016387939453 0.45854103565216064
v 0.49706339836120605 0.997063398361206 0.45854103565216064
v 0.48854100704193115 0.011458992958068848 0.47526711225509644
v 0.49706339836120605 0.997063398361206 0.45854103565216064
v 0.48854100704193115 0.9885410070419312 0.47526711225509644
v 0.48854100704193115 0.011458992958068848 0.47526711225509644
v 0.48854100704193115 0.011458992958068848 0.47526711225509644
v 0.48854100704193115 0.9885410070419312 0.47526711225509644
v 0.47526711225509644 0.024732887744903564 0.48854100704193115
v 0.48854100704193115 0.9885410070419312 0.47526711225509644
v 0.47526711225509644 0.9752671122550964 0.48854100704193115
v 0.47526711225509644 0.024732887744903564 0.48854100704193115
v 0.47526711225509644 0.024732887744903564 0.48854100704193115
v 0.47526711225509644 0.9752671122550964 0.48854100704193115
v 0.45854100584983826 0.04145899415016174 0.49706339836120605
v 0.47526711225509644 0.9752671122550964 0.48854100704193115
v 0.45854100584983826 0.9585410058498383 0.49706339836120605
v 0.45854100584983826 0.04145899415016174 0.49706339836120605
v 0.45854100584983826 0.04145899415016174 0.49706339836120605
v 0.45854100584983826 0.9585410058498383 0.49706339836120605
v 0.4399999976158142 0.06000000238418579 0.5
v 0.45854100584983826 0.9585410058498383 0.49706339836120605
v 0.4399999976158142 0.9399999976158142 0.5
v 0.4399999976158142 0.06000000238418579 0.5
v 0.4399999976158142 0.9399999976158142 -0.5
v -0.4399999976158142 0.9399999976158142 -0.5
v 0.45854100584983826 0.9585410058498383 -0.49706339836120605
v -0.4399999976158142 0.9399999976158142 -0.5
v -0.45854100584983826 0.9585410058498383 -0.49706339836120605
v 0.45854100584983826 0.9585410058498383 -0.49706339836120605
v 0.45854100584983826 0.9585410058498383 -0.49706339836120605
v -0.45854100584983826 0.9585410058498383 -0.49706339836120605
v 0.47526711225509644 0.9752671122550964 -0.48854100704193115
v -0.45854100584983826 0.9585410058498383 -0.49706339836120605
v -0.47526711225509644 0.9752671122550964 -0.48854100704193115
v 0.47526711225509644 0.9752671122550964 -0.48854100704193115
v 0.47526711225509644 0.9752671122550964 -0.48854100704193115
v -0.47526711225509644 0.9752671122550964 -0.48854100704193115
v 0.48854100704193115 0.9885410070419312 -0.47526711225509644
v -0.47526711225509644 0.9752671122550964 -0.48854100704193115
v -0.48854100704193115 0.9885410070419312 -0.47526711225509644
v 0.48854100704193115 0.9885410070419312 -0.47526711225509644
v 0.48854100704193115 0.9885410070419312 -0.47526711225509644
v -0.48854100704193115 0.9885410070419312 -0.47526711225509644
v 0.49706339836120605 0.997063398361206 -0.45854100584983826
v -0.48854100704193115 0.9885410070419312 -0.47526711225509644
v -0.49706339836120605 0.997063398361206 -0.45854100584983826
v 0.49706339836120605 0.997063398361206 -0.45854100584983826
v 0.49706339836120605 0.997063398361206 -0.45854100584983826
v -0.49706339836120605 0.997063398361206 -0.45854100584983826
v 0.5 1 -0.4399999976158142
v -0.49706339836120605 0.997063398361206 -0.45854100584983826
v -0.5 1 -0.4399999976158142
v 0.5 1 -0.4399999976158142
v 0.5 1 -0.4399999976158142
v -0.5 1 -0.4399999976158142
v 0.5 1 0.4399999976158142
v -0.5 1 -0.4399999976158142
v -0.5 1 0.4399999976158142
v 0.5 1 0.4399999976158142
v 0.5 1 0.4399999976158142
v -0.5 1 0.4399999976158142
v 0.49706339836120605 0.997063398361206 0.45854103565216064
v -0.5 1 0.4399999976158142
v -0.49706339836120605 0.997063398361206 0.45854103565216064
v 0.49706339836120605 0.997063398361206 0.45854103565216064
v 0.49706339836120605 0.997063398361206 0.45854103565216064
v -0.49706339836120605 0.997063398361206 0.45854103565216064
v 0.48854100704193115 0.9885410070419312 0.47526711225509644
v -0.49706339836120605 0.997063398361206 0.45854103565216064
v -0.48854100704193115 0.9885410070419312 0.47526711225509644
v 0.48854100704193115 0.9885410070419312 0.47526711225509644
v 0.48854100704193115 0.9885410070419312 0.47526711225509644
v -0.48854100704193115 0.9885410070419312 0.47526711225509644
v 0.47526711225509644 0.9752671122550964 0.48854100704193115
v -0.48854100704193115 0.9885410070419312 0.47526711225509644
v -0.47526711225509644 0.9752671122550964 0.48854100704193115
v 0.47526711225509644 0.9752671122550964 0.48854100704193115
v 0.47526711225509644 0.9752671122550964 0.48854100704193115
v -0.47526711225509644 0.9752671122550964 0.48854100704193115
v 0.45854100584983826 0.9585410058498383 0.49706339836120605
v -0.47526711225509644 0.9752671122550964 0.48854100704193115
v -0.45854100584983826 0.9585410058498383 0.49706339836120605
v 0.45854100584983826 0.9585410058498383 0.49706339836120605
v 0.45854100584983826 0.9585410058498383 0.49706339836120605
v -0.45854100584983826 0.9585410058498383 0.49706339836120605
v 0.4399999976158142 0.9399999976158142 0.5
v -0.45854100584983826 0.9585410058498383 0.49706339836120605
v -0.4399999976158142 0.9399999976158142 0.5
v 0.4399999976158142 0.9399999976158142 0.5
v -0.4399999976158142 0.9399999976158142 -0.5
v -0.4399999976158142 0.06000000238418579 -0.5
v -0.45854100584983826 0.9585410058498383 -0.49706339836120605
v -0.4399999976158142 0.06000000238418579 -0.5
v -0.45854100584983826 0.04145899415016174 -0.49706339836120605
v -0.45854100584983826 0.9585410058498383 -0.49706339836120605
v -0.45854100584983826 0.9585410058498383 -0.49706339836120605
v -0.45854100584983826 0.04145899415016174 -0.49706339836120605
v -0.47526711225509644 0.9752671122550964 -0.48854100704193115
v -0.45854100584983826 0.04145899415016174 -0.49706339836120605
v -0.47526711225509644 0.024732887744903564 -0.48854100704193115
v -0.47526711225509644 0.9752671122550964 -0.48854100704193115
v -0.47526711225509644 0.9752671122550964 -0.48854100704193115
v -0.47526711225509644 0.024732887744903564 -0.48854100704193115
v -0.48854100704193115 0.9885410070419312 -0.47526711225509644
v -0.47526711225509644 0.024732887744903564 -0.48854100704193115
v -0.48854100704193115 0.011458992958068848 -0.47526711225509644
v -0.48854100704193115 0.9885410070419312 -0.47526711225509644
v -0.48854100704193115 0.9885410070419312 -0.47526711225509644
v -0.48854100704193115 0.011458992958068848 -0.47526711225509644
v -0.49706339836120605 0.997063398361206 -0.45854100584983826
v -0.48854100704193115 0.011458992958068848 -0.47526711225509644
v -0.49706339836120605 0.0029366016387939453 -0.45854100584983826
v -0.49706339836120605 0.997063398361206 -0.45854100584983826
v -0.49706339836120605 0.997063398361206 -0.45854100584983826
v -0.49706339836120605 0.0029366016387939453 -0.45854100584983826
v -0.5 1 -0.4399999976158142
v -0.49706339836120605 0.0029366016387939453 -0.45854100584983826
v -0.5 0 -0.4399999976158142
v -0.5 1 -0.4399999976158142
v -0.5 1 -0.4399999976158142
v -0.5 0 -0.4399999976158142
v -0.5 1 0.4399999976158142
v -0.5 0 -0.4399999976158142
v -0.5 0 0.4399999976158142
v -0.5 1 0.4399999976158142
v -0.5 1 0.4399999976158142
v -0.5 0 0.4399999976158142
v -0.49706339836120605 0.997063398361206 0.45854103565216064
v -0.5 0 0.4399999976158142
v -0.49706339836120605 0.0029366016387939453 0.45854103565216064
v -0.49706339836120605 0.997063398361206 0.45854103565216064
v -0.49706339836120605 0.997063398361206 0.45854103565216064
v -0.49706339836120605 0.0029366016387939453 0.45854103565216064
v -0.48854100704193115 0.9885410070419312 0.47526711225509644
v -0.49706339836120605 0.0029366016387939453 0.45854103565216064
v -0.48854100704193115 0.011458992958068848 0.47526711225509644
v -0.48854100704193115 0.9885410070419312 0.47526711225509644
v -0.48854100704193115 0.9885410070419312 0.47526711225509644
v -0.48854100704193115 0.011458992958068848 0.47526711225509644
v -0.47526711225509644 0.9752671122550964 0.48854100704193115
v -0.48854100704193115 0.011458992958068848 0.47526711225509644
v -0.47526711225509644 0.024732887744903564 0.48854100704193115
v -0.47526711225509644 0.9752671122550964 0.48854100704193115
v -0.47526711225509644 0.9752671122550964 0.48854100704193115
v -0.47526711225509644 0.024732887744903564 0.48854100704193115
v -0.45854100584983826 0.9585410058498383 0.49706339836120605
v -0.47526711225509644 0.024732887744903564 0.48854100704193115
v -0.45854100584983826 0.04145899415016174 0.49706339836120605
v -0.45854100584983826 0.9585410058498383 0.49706339836120605
v -0.45854100584983826 0.9585410058498383 0.49706339836120605
v -0.45854100584983826 0.04145899415016174 0.49706339836120605
v -0.4399999976158142 0.9399999976158142 0.5
v -0.45854100584983826 0.04145899415016174 0.49706339836120605
v -0.4399999976158142 0.06000000238418579 0.5
v -0.4399999976158142 0.9399999976158142 0.5
vt -0.4399999976158142 -0.4399999976158142
vt -0.4399999976158142 0.4399999976158142
vt 0.4399999976158142 0.4399999976158142
vt 0.4399999976158142 0.4399999976158142
vt 0.4399999976158142 -0.4399999976158142
vt -0.4399999976158142 -0.4399999976158142
vt 0.4399999976158142 0.4399999976158142
vt -0.4399999976158142 0.4399999976158142
vt -0.4399999976158142 -0.4399999976158142
vt -0.4399999976158142 -0.4399999976158142
vt 0.4399999976158142 -0.4399999976158142
vt 0.4399999976158142 0.4399999976158142
vt -0.4399999976158142 1.059999942779541
vt 0.4399999976158142 1.059999942779541
vt -0.45854100584983826 1.057063341140747
vt 0.4399999976158142 1.059999942779541
vt 0.45854100584983826 1.057063341140747
vt -0.45854100584983826 1.057063341140747
vt -0.45854100584983826 1.057063341140747
vt 0.45854100584983826 1.057063341140747
vt -0.47526711225509644 1.0485410690307617
vt 0.45854100584983826 1.057063341140747
vt 0.47526711225509644 1.0485410690307617
vt -0.47526711225509644 1.0485410690307617
vt -0.47526711225509644 1.0485410690307617
vt 0.47526711225509644 1.0485410690307617
vt -0.48854100704193115 1.0352671146392822
vt 0.47526711225509644 1.0485410690307617
vt 0.48854100704193115 1.0352671146392822
vt -0.48854100704193115 1.0352671146392822
vt -0.48854100704193115 1.0352671146392822
vt 0.48854100704193115 1.0352671146392822
vt -0.49706339836120605 1.0185409784317017
vt 0.48854100704193115 1.0352671146392822
vt 0.49706339836120605 1.0185409784317017
vt -0.49706339836120605 1.0185409784317017
vt -0.49706339836120605 1.0185409784317017
vt 0.49706339836120605 1.0185409784317017
vt -0.5 1
vt 0.49706339836120605 1.0185409784317017
vt 0.5 1
vt -0.5 1
vt -0.5 1
vt 0.5 1
vt -0.5 0.11999999731779099
vt 0.5 1
vt 0.5 0.11999999731779099
vt -0.5 0.11999999731779099
vt -0.5 0.11999999731779099
vt 0.5 0.11999999731779099
vt -0.49706339836120605 0.10145898163318634
vt 0.5 0.11999999731779099
vt 0.49706339836120605 0.10145898163318634
vt -0.49706339836120605 0.10145898163318634
vt -0.49706339836120605 0.10145898163318634
vt 0.49706339836120605 0.10145898163318634
vt -0.48854100704193115 0.08473288267850876
vt 0.49706339836120605 0.10145898163318634
vt 0.48854100704193115 0.08473288267850876
vt -0.48854100704193115 0.08473288267850876
vt -0.48854100704193115 0.08473288267850876
vt 0.48854100704193115 0.08473288267850876
vt -0.47526711225509644 0.07145898044109344
vt 0.48854100704193115 0.08473288267850876
vt 0.47526711225509644 0.07145898044109344
vt -0.47526711225509644 0.07145898044109344
vt -0.47526711225509644 0.07145898044109344
vt 0.47526711225509644 0.07145898044109344
vt -0.45854100584983826 0.06293661147356033
vt 0.47526711225509644 0.07145898044109344
vt 0.45854100584983826 0.06293661147356033
vt -0.45854100584983826 0.06293661147356033
vt -0.45854100584983826 0.06293661147356033
vt 0.45854100584983826 0.06293661147356033
vt -0.4399999976158142 0.05999999865889549
vt 0.45854100584983826 0.06293661147356033
vt 0.4399999976158142 0.05999999865889549
vt -0.4399999976158142 0.05999999865889549
vt -0.4399999976158142 1.059999942779541
vt 0.4399999976158142 1.059999942779541
vt -0.45854100584983826 1.057063341140747
vt 0.4399999976158142 1.059999942779541
vt 0.45854100584983826 1.057063341140747
vt -0.45854100584983826 1.057063341140747
vt -0.45854100584983826 1.057063341140747
vt 0.45854100584983826 1.057063341140747
vt -0.47526711225509644 1.0485410690307617
vt 0.45854100584983826 1.057063341140747
vt 0.47526711225509644 1.0485410690307617
vt -0.47526711225509644 1.0485410690307617
vt -0.47526711225509644 1.0485410690307617
vt 0.47526711225509644 1.0485410690307617
vt -0.48854100704193115 1.0352671146392822
vt 0.47526711225509644 1.0485410690307617
vt 0.48854100704193115 1.0352671146392822
vt -0.48854100704193115 1.0352671146392822
vt -0.48854100704193115 1.0352671146392822
vt 0.48854100704193115 1.0352671146392822
vt -0.49706339836120605 1.0185409784317017
vt 0.48854100704193115 1.0352671146392822
vt 0.49706339836120605 1.0185409784317017
vt -0.49706339836120605 1.0185409784317017
vt -0.49706339836120605 1.0185409784317017
vt 0.49706339836120605 1.0185409784317017
vt -0.5 1
vt 0.49706339836120605 1.0185409784317017
vt 0.5 1
vt -0.5 1
vt -0.5 1
vt 0.5 1
vt -0.5 0.11999999731779099
vt 0.5 1
vt 0.5 0.11999999731779099
vt -0.5 0.11999999731779099
vt -0.5 0.11999999731779099
vt 0.5 0.11999999731779099
vt -0.49706339836120605 0.10145898163318634
vt 0.5 0.11999999731779099
vt 0.49706339836120605 0.10145898163318634
vt -0.49706339836120605 0.10145898163318634
vt -0.49706339836120605 0.10145898163318634
vt 0.49706339836120605 0.10145898163318634
vt -0.48854100704193115 0.08473288267850876
vt 0.49706339836120605 0.10145898163318634
vt 0.48854100704193115 0.08473288267850876
vt -0.48854100704193115 0.08473288267850876
vt -0.48854100704193115 0.08473288267850876
vt 0.48854100704193115 0.08473288267850876
vt -0.47526711225509644 0.07145898044109344
vt 0.48854100704193115 0.08473288267850876
vt 0.47526711225509644 0.07145898044109344
vt -0.47526711225509644 0.07145898044109344
vt -0.47526711225509644 0.07145898044109344
vt 0.47526711225509644 0.07145898044109344
vt -0.45854100584983826 0.06293661147356033
vt 0.47526711225509644 0.07145898044109344
vt 0.45854100584983826 0.06293661147356033
vt -0.45854100584983826 0.06293661147356033
vt -0.45854100584983826 0.06293661147356033
vt 0.45854100584983826 0.06293661147356033
vt -0.4399999976158142 0.05999999865889549
vt 0.45854100584983826 0.06293661147356033
vt 0.4399999976158142 0.05999999865889549
vt -0.4399999976158142 0.05999999865889549
vt 0.4399999976158142 1.059999942779541
vt -0.4399999976158142 1.059999942779541
vt 0.45854100584983826 1.057063341140747
vt -0.4399999976158142 1.059999942779541
vt -0.45854100584983826 1.057063341140747
vt 0.45854100584983826 1.057063341140747
vt 0.45854100584983826 1.057063341140747
vt -0.45854100584983826 1.057063341140747
vt 0.47526711225509644 1.0485410690307617
vt -0.45854100584983826 1.057063341140747
vt -0.47526711225509644 1.0485410690307617
vt 0.47526711225509644 1.0485410690307617
vt 0.47526711225509644 1.0485410690307617
vt -0.47526711225509644 1.0485410690307617
vt 0.48854100704193115 1.0352671146392822
vt -0.47526711225509644 1.0485410690307617
vt -0.48854100704193115 1.0352671146392822
vt 0.48854100704193115 1.0352671146392822
vt 0.48854100704193115 1.0352671146392822
vt -0.48854100704193115 1.0352671146392822
vt 0.49706339836120605 1.0185409784317017
vt -0.48854100704193115 1.0352671146392822
vt -0.49706339836120605 1.0185409784317017
vt 0.49706339836120605 1.0185409784317017
vt 0.49706339836120605 1.0185409784317017
vt -0.49706339836120605 1.0185409784317017
vt 0.5 1
vt -0.49706339836120605 1.0185409784317017
vt -0.5 1
vt 0.5 1
vt 0.5 1
vt -0.5 1
vt 0.5 0.11999999731779099
vt -0.5 1
vt -0.5 0.11999999731779099
vt 0.5 0.11999999731779099
vt 0.5 0.11999999731779099
vt -0.5 0.11999999731779099
vt 0.49706339836120605 0.10145898163318634
vt -0.5 0.11999999731779099
vt -0.49706339836120605 0.10145898163318634
vt 0.49706339836120605 0.10145898163318634
vt 0.49706339836120605 0.10145898163318634
vt -0.49706339836120605 0.10145898163318634
vt 0.48854100704193115 0.08473288267850876
vt -0.49706339836120605 0.10145898163318634
vt -0.48854100704193115 0.08473288267850876
vt 0.48854100704193115 0.08473288267850876
vt 0.48854100704193115 0.08473288267850876
vt -0.48854100704193115 0.08473288267850876
vt 0.47526711225509644 0.07145898044109344
vt -0.48854100704193115 0.08473288267850876
vt -0.47526711225509644 0.07145898044109344
vt 0.47526711225509644 0.07145898044109344
vt 0.47526711225509644 0.07145898044109344
vt -0.47526711225509644 0.07145898044109344
vt 0.45854100584983826 0.06293661147356033
vt -0.47526711225509644 0.07145898044109344
vt -0.45854100584983826 0.06293661147356033
vt 0.45854100584983826 0.06293661147356033
vt 0.45854100584983826 0.06293661147356033
vt -0.45854100584983826 0.06293661147356033
vt 0.4399999976158142 0.05999999865889549
vt -0.45854100584983826 0.06293661147356033
vt -0.4399999976158142 0.05999999865889549
vt 0.4399999976158142 0.05999999865889549
vt 0.4399999976158142 1.059999942779541
vt -0.4399999976158142 1.059999942779541
vt 0.45854100584983826 1.057063341140747
vt -0.4399999976158142 1.059999942779541
vt -0.45854100584983826 1.057063341140747
vt 0.45854100584983826 1.057063341140747
vt 0.45854100584983826 1.057063341140747
vt -0.45854100584983826 1.057063341140747
vt 0.47526711225509644 1.0485410690307617
vt -0.45854100584983826 1.057063341140747
vt -0.47526711225509644 1.0485410690307617
vt 0.47526711225509644 1.0485410690307617
vt 0.47526711225509644 1.0485410690307617
vt -0.47526711225509644 1.0485410690307617
vt 0.48854100704193115 1.0352671146392822
vt -0.47526711225509644 1.0485410690307617
vt -0.48854100704193115 1.0352671146392822
vt 0.48854100704193115 1.0352671146392822
vt 0.48854100704193115 1.0352671146392822
vt -0.48854100704193115 1.0352671146392822
vt 0.49706339836120605 1.0185409784317017
vt -0.48854100704193115 1.0352671146392822
vt -0.49706339836120605 1.0185409784317017
vt 0.49706339836120605 1.0185409784317017
vt 0.49706339836120605 1.0185409784317017
vt -0.49706339836120605 1.0185409784317017
vt 0.5 1
vt -0.49706339836120605 1.0185409784317017
vt -0.5 1
vt 0.5 1
vt 0.5 1
vt -0.5 1
vt 0.5 0.11999999731779099
vt -0.5 1
vt -0.5 0.11999999731779099
vt 0.5 0.11999999731779099
vt 0.5 0.11999999731779099
vt -0.5 0.11999999731779099
vt 0.49706339836120605 0.10145898163318634
vt -0.5 0.11999999731779099
vt -0.49706339836120605 0.10145898163318634
vt 0.49706339836120605 0.10145898163318634
vt 0.49706339836120605 0.10145898163318634
vt -0.49706339836120605 0.10145898163318634
vt 0.48854100704193115 0.08473288267850876
vt -0.49706339836120605 0.10145898163318634
vt -0.48854100704193115 0.08473288267850876
vt 0.48854100704193115 0.08473288267850876
vt 0.48854100704193115 0.08473288267850876
vt -0.48854100704193115 0.08473288267850876
vt 0.47526711225509644 0.07145898044109344
vt -0.48854100704193115 0.08473288267850876
vt -0.47526711225509644 0.07145898044109344
vt 0.47526711225509644 0.07145898044109344
vt 0.47526711225509644 0.07145898044109344
vt -0.47526711225509644 0.07145898044109344
vt 0.45854100584983826 0.06293661147356033
vt -0.47526711225509644 0.07145898044109344
vt -0.45854100584983826 0.06293661147356033
vt 0.45854100584983826 0.06293661147356033
vt 0.45854100584983826 0.06293661147356033
vt -0.45854100584983826 0.06293661147356033
vt 0.4399999976158142 0.05999999865889549
vt -0.45854100584983826 0.06293661147356033
vt -0.4399999976158142 0.05999999865889549
vt 0.4399999976158142 0.05999999865889549
vn 0 0 -1
vn 0 0 -1
vn 0 0 -1
vn 0 0 -1
vn 0 0 -1
vn 0 0 -1
vn 0 0 1
vn 0 0 1
vn 0 0 1
vn 0 0 1
vn 0 0 1
vn 0 0 1
vn 0 -0.15643455459043487 -0.9876883264117747
vn 0 -0.15643455459043487 -0.9876883264117747
vn 0 -0.15643455459043487 -0.9876883264117747
vn 0 -0.15643455459043487 -0.9876883264117747
vn 0 -0.15643455459043487 -0.9876883264117747
vn 0 -0.15643455459043487 -0.9876883264117747
vn 0 -0.45399015673718357 -0.8910066989567179
vn 0 -0.45399015673718357 -0.8910066989567179
vn 0 -0.45399015673718357 -0.8910066989567179
vn 0 -0.45399015673718357 -0.8910066989567179
vn 0 -0.45399015673718357 -0.8910066989567179
vn 0 -0.45399015673718357 -0.8910066989567179
vn 0 -0.7071070792097137 -0.7071064831632558
vn 0 -0.7071070792097137 -0.7071064831632558
vn 0 -0.7071070792097137 -0.7071064831632558
vn 0 -0.7071070792097137 -0.7071064831632558
vn 0 -0.7071070792097137 -0.7071064831632558
vn 0 -0.7071070792097137 -0.7071064831632558
vn 0 -0.8910060938951208 -0.4539913442366048
vn 0 -0.8910060938951208 -0.4539913442366048
vn 0 -0.8910060938951208 -0.4539913442366048
vn 0 -0.8910060938951208 -0.4539913442366048
vn 0 -0.8910060938951208 -0.4539913442366048
vn 0 -0.8910060938951208 -0.4539913442366048
vn 0 -0.9876884007020004 -0.15643408553996335
vn 0 -0.9876884007020004 -0.15643408553996335
vn 0 -0.9876884007020004 -0.15643408553996335
vn 0 -0.9876884007020004 -0.15643408553996335
vn 0 -0.9876884007020004 -0.15643408553996335
vn 0 -0.9876884007020004 -0.15643408553996335
vn 0 -1 0
vn 0 -1 0
vn 0 -1 0
vn 0 -1 0
vn 0 -1 0
vn 0 -1 0
vn 0 -0.987688426027844 0.15643392563839917
vn 0 -0.987688426027844 0.15643392563839917
vn 0 -0.987688426027844 0.15643392563839917
vn 0 -0.9876884237254956 0.1564339401749055
vn 0 -0.9876884237254956 0.1564339401749055
vn 0 -0.9876884237254956 0.1564339401749055
vn 0 -0.8910058880359956 0.45399174825671335
vn 0 -0.8910058880359956 0.45399174825671335
vn 0 -0.8910058880359956 0.45399174825671335
vn 0 -0.891005875980678 0.4539917719165234
vn 0 -0.891005875980678 0.4539917719165234
vn 0 -0.891005875980678 0.4539917719165234
vn 0 -0.7071067811865476 0.7071067811865476
vn 0 -0.7071067811865476 0.7071067811865476
vn 0 -0.7071067811865476 0.7071067811865476
vn 0 -0.7071067811865476 0.7071067811865476
vn 0 -0.7071067811865476 0.7071067811865476
vn 0 -0.7071067811865476 0.7071067811865476
vn 0 -0.453991106736787 0.8910062149075658
vn 0 -0.453991106736787 0.8910062149075658
vn 0 -0.453991106736787 0.8910062149075658
vn 0 -0.453991106736787 0.8910062149075658
vn 0 -0.453991106736787 0.8910062149075658
vn 0 -0.453991106736787 0.8910062149075658
vn 0 -0.15643418196840067 0.9876883854292694
vn 0 -0.15643418196840067 0.9876883854292694
vn 0 -0.15643418196840067 0.9876883854292694
vn 0 -0.15643416743189517 0.9876883877316215
vn 0 -0.15643416743189517 0.9876883877316215
vn 0 -0.15643416743189517 0.9876883877316215
vn 0.15643455459043487 0 -0.9876883264117747
vn 0.15643455459043487 0 -0.9876883264117747
vn 0.15643455459043487 0 -0.9876883264117747
vn 0.15643455459043487 0 -0.9876883264117747
vn 0.15643455459043487 0 -0.9876883264117747
vn 0.15643455459043487 0 -0.9876883264117747
vn 0.45399015673718357 0 -0.8910066989567179
vn 0.45399015673718357 0 -0.8910066989567179
vn 0.45399015673718357 0 -0.8910066989567179
vn 0.45399015673718357 0 -0.8910066989567179
vn 0.45399015673718357 0 -0.8910066989567179
vn 0.45399015673718357 0 -0.8910066989567179
vn 0.7071070792097137 0 -0.7071064831632558
vn 0.7071070792097137 0 -0.7071064831632558
vn 0.7071070792097137 0 -0.7071064831632558
vn 0.7071070792097137 0 -0.7071064831632558
vn 0.7071070792097137 0 -0.7071064831632558
vn 0.7071070792097137 0 -0.7071064831632558
vn 0.8910060938951208 0 -0.4539913442366048
vn 0.8910060938951208 0 -0.4539913442366048
vn 0.8910060938951208 0 -0.4539913442366048
vn 0.8910060938951208 0 -0.4539913442366048
vn 0.8910060938951208 0 -0.4539913442366048
vn 0.8910060938951208 0 -0.4539913442366048
vn 0.9876884007020004 0 -0.15643408553996335
vn 0.9876884007020004 0 -0.15643408553996335
vn 0.9876884007020004 0 -0.15643408553996335
vn 0.9876884007020004 0 -0.15643408553996335
vn 0.9876884007020004 0 -0.15643408553996335
vn 0.9876884007020004 0 -0.15643408553996335
vn 1 0 0
vn 1 0 0
vn 1 0 0
vn 1 0 0
vn 1 0 0
vn 1 0 0
vn 0.987688426027844 0 0.15643392563839917
vn 0.987688426027844 0 0.15643392563839917
vn 0.987688426027844 0 0.15643392563839917
vn 0.9876884237254956 0 0.1564339401749055
vn 0.9876884237254956 0 0.1564339401749055
vn 0.9876884237254956 0 0.1564339401749055
vn 0.8910058880359956 0 0.45399174825671335
vn 0.8910058880359956 0 0.45399174825671335
vn 0.8910058880359956 0 0.45399174825671335
vn 0.891005875980678 0 0.4539917719165234
vn 0.891005875980678 0 0.4539917719165234
vn 0.891005875980678 0 0.4539917719165234
vn 0.7071067811865476 0 0.7071067811865476
vn 0.7071067811865476 0 0.7071067811865476
vn 0.7071067811865476 0 0.7071067811865476
vn 0.7071067811865476 0 0.7071067811865476
vn 0.7071067811865476 0 0.7071067811865476
vn 0.7071067811865476 0 0.7071067811865476
vn 0.453991106736787 0 0.8910062149075658
vn 0.453991106736787 0 0.8910062149075658
vn 0.453991106736787 0 0.8910062149075658
vn 0.453991106736787 0 0.8910062149075658
vn 0.453991106736787 0 0.8910062149075658
vn 0.453991106736787 0 0.8910062149075658
vn 0.15643418196840067 0 0.9876883854292694
vn 0.15643418196840067 0 0.9876883854292694
vn 0.15643418196840067 0 0.9876883854292694
vn 0.15643416743189517 0 0.9876883877316215
vn 0.15643416743189517 0 0.9876883877316215
vn 0.15643416743189517 0 0.9876883877316215
vn 0 0.15643455459043487 -0.9876883264117747
vn 0 0.15643455459043487 -0.9876883264117747
vn 0 0.15643455459043487 -0.9876883264117747
vn 0 0.15643455459043487 -0.9876883264117747
vn 0 0.15643455459043487 -0.9876883264117747
vn 0 0.15643455459043487 -0.9876883264117747
vn 0 0.45399015673718357 -0.8910066989567179
vn 0 0.45399015673718357 -0.8910066989567179
vn 0 0.45399015673718357 -0.8910066989567179
vn 0 0.45399015673718357 -0.8910066989567179
vn 0 0.45399015673718357 -0.8910066989567179
vn 0 0.45399015673718357 -0.8910066989567179
vn 0 0.7071070792097137 -0.7071064831632558
vn 0 0.7071070792097137 -0.7071064831632558
vn 0 0.7071070792097137 -0.7071064831632558
vn 0 0.7071070792097137 -0.7071064831632558
vn 0 0.7071070792097137 -0.7071064831632558
vn 0 0.7071070792097137 -0.7071064831632558
vn 0 0.8910060938951208 -0.4539913442366048
vn 0 0.8910060938951208 -0.4539913442366048
vn 0 0.8910060938951208 -0.4539913442366048
vn 0 0.8910060938951208 -0.4539913442366048
vn 0 0.8910060938951208 -0.4539913442366048
vn 0 0.8910060938951208 -0.4539913442366048
vn 0 0.9876884007020004 -0.15643408553996335
vn 0 0.9876884007020004 -0.15643408553996335
vn 0 0.9876884007020004 -0.15643408553996335
vn 0 0.9876884007020004 -0.15643408553996335
vn 0 0.9876884007020004 -0.15643408553996335
vn 0 0.9876884007020004 -0.15643408553996335
vn 0 1 0
vn 0 1 0
vn 0 1 0
vn 0 1 0
vn 0 1 0
vn 0 1 0
vn 0 0.987688426027844 0.15643392563839917
vn 0 0.987688426027844 0.15643392563839917
vn 0 0.987688426027844 0.15643392563839917
vn 0 0.9876884237254956 0.1564339401749055
vn 0 0.9876884237254956 0.1564339401749055
vn 0 0.9876884237254956 0.1564339401749055
vn 0 0.8910058880359956 0.45399174825671335
vn 0 0.8910058880359956 0.45399174825671335
vn 0 0.8910058880359956 0.45399174825671335
vn 0 0.891005875980678 0.4539917719165234
vn 0 0.891005875980678 0.4539917719165234
vn 0 0.891005875980678 0.4539917719165234
vn 0 0.7071067811865476 0.7071067811865476
vn 0 0.7071067811865476 0.7071067811865476
vn 0 0.7071067811865476 0.7071067811865476
vn 0 0.7071067811865476 0.7071067811865476
vn 0 0.7071067811865476 0.7071067811865476
vn 0 0.7071067811865476 0.7071067811865476
vn 0 0.453991106736787 0.8910062149075658
vn 0 0.453991106736787 0.8910062149075658
vn 0 0.453991106736787 0.8910062149075658
vn 0 0.453991106736787 0.8910062149075658
vn 0 0.453991106736787 0.8910062149075658
vn 0 0.453991106736787 0.8910062149075658
vn 0 0.15643418196840067 0.9876883854292694
vn 0 0.15643418196840067 0.9876883854292694
vn 0 0.15643418196840067 0.9876883854292694
vn 0 0.15643416743189517 0.9876883877316215
vn 0 0.15643416743189517 0.9876883877316215
vn 0 0.15643416743189517 0.9876883877316215
vn -0.15643455459043487 0 -0.9876883264117747
vn -0.15643455459043487 0 -0.9876883264117747
vn -0.15643455459043487 0 -0.9876883264117747
vn -0.15643455459043487 0 -0.9876883264117747
vn -0.15643455459043487 0 -0.9876883264117747
vn -0.15643455459043487 0 -0.9876883264117747
vn -0.45399015673718357 0 -0.8910066989567179
vn -0.45399015673718357 0 -0.8910066989567179
vn -0.45399015673718357 0 -0.8910066989567179
vn -0.45399015673718357 0 -0.8910066989567179
vn -0.45399015673718357 0 -0.8910066989567179
vn -0.45399015673718357 0 -0.8910066989567179
vn -0.7071070792097137 0 -0.7071064831632558
vn -0.7071070792097137 0 -0.7071064831632558
vn -0.7071070792097137 0 -0.7071064831632558
vn -0.7071070792097137 0 -0.7071064831632558
vn -0.7071070792097137 0 -0.7071064831632558
vn -0.7071070792097137 0 -0.7071064831632558
vn -0.8910060938951208 0 -0.4539913442366048
vn -0.8910060938951208 0 -0.4539913442366048
vn -0.8910060938951208 0 -0.4539913442366048
vn -0.8910060938951208 0 -0.4539913442366048
vn -0.8910060938951208 0 -0.4539913442366048
vn -0.8910060938951208 0 -0.4539913442366048
vn -0.9876884007020004 0 -0.15643408553996335
vn -0.9876884007020004 0 -0.15643408553996335
vn -0.9876884007020004 0 -0.15643408553996335
vn -0.9876884007020004 0 -0.15643408553996335
vn -0.9876884007020004 0 -0.15643408553996335
vn -0.9876884007020004 0 -0.15643408553996335
vn -1 0 0
vn -1 0 0
vn -1 0 0
vn -1 0 0
vn -1 0 0
vn -1 0 0
vn -0.987688426027844 0 0.15643392563839917
vn -0.987688426027844 0 0.15643392563839917
vn -0.987688426027844 0 0.15643392563839917
vn -0.9876884237254956 0 0.1564339401749055
vn -0.9876884237254956 0 0.1564339401749055
vn -0.9876884237254956 0 0.1564339401749055
vn -0.8910058880359956 0 0.45399174825671335
vn -0.8910058880359956 0 0.45399174825671335
vn -0.8910058880359956 0 0.45399174825671335
vn -0.891005875980678 0 0.4539917719165234
vn -0.891005875980678 0 0.4539917719165234
vn -0.891005875980678 0 0.4539917719165234
vn -0.7071067811865476 0 0.7071067811865476
vn -0.7071067811865476 0 0.7071067811865476
vn -0.7071067811865476 0 0.7071067811865476
vn -0.7071067811865476 0 0.7071067811865476
vn -0.7071067811865476 0 0.7071067811865476
vn -0.7071067811865476 0 0.7071067811865476
vn -0.453991106736787 0 0.8910062149075658
vn -0.453991106736787 0 0.8910062149075658
vn -0.453991106736787 0 0.8910062149075658
vn -0.453991106736787 0 0.8910062149075658
vn -0.453991106736787 0 0.8910062149075658
vn -0.453991106736787 0 0.8910062149075658
vn -0.15643418196840067 0 0.9876883854292694
vn -0.15643418196840067 0 0.9876883854292694
vn -0.15643418196840067 0 0.9876883854292694
vn -0.15643416743189517 0 0.9876883877316215
vn -0.15643416743189517 0 0.9876883877316215
vn -0.15643416743189517 0 0.9876883877316215
f 1/1/1 2/2/2 3/3/3
f 4/4/4 5/5/5 6/6/6
f 7/7/7 8/8/8 9/9/9
f 10/10/10 11/11/11 12/12/12
f 13/13/13 14/14/14 15/15/15
f 16/16/16 17/17/17 18/18/18
f 19/19/19 20/20/20 21/21/21
f 22/22/22 23/23/23 24/24/24
f 25/25/25 26/26/26 27/27/27
f 28/28/28 29/29/29 30/30/30
f 31/31/31 32/32/32 33/33/33
f 34/34/34 35/35/35 36/36/36
f 37/37/37 38/38/38 39/39/39
f 40/40/40 41/41/41 42/42/42
f 43/43/43 44/44/44 45/45/45
f 46/46/46 47/47/47 48/48/48
f 49/49/49 50/50/50 51/51/51
f 52/52/52 53/53/53 54/54/54
f 55/55/55 56/56/56 57/57/57
f 58/58/58 59/59/59 60/60/60
f 61/61/61 62/62/62 63/63/63
f 64/64/64 65/65/65 66/66/66
f 67/67/67 68/68/68 69/69/69
f 70/70/70 71/71/71 72/72/72
f 73/73/73 74/74/74 75/75/75
f 76/76/76 77/77/77 78/78/78
f 79/79/79 80/80/80 81/81/81
f 82/82/82 83/83/83 84/84/84
f 85/85/85 86/86/86 87/87/87
f 88/88/88 89/89/89 90/90/90
f 91/91/91 92/92/92 93/93/93
f 94/94/94 95/95/95 96/96/96
f 97/97/97 98/98/98 99/99/99
f 100/100/100 101/101/101 102/102/102
f 103/103/103 104/104/104 105/105/105
f 106/106/106 107/107/107 108/108/108
f 109/109/109 110/110/110 111/111/111
f 112/112/112 113/113/113 114/114/114
f 115/115/115 116/116/116 117/117/117
f 118/118/118 119/119/119 120/120/120
f 121/121/121 122/122/122 123/123/123
f 124/124/124 125/125/125 126/126/126
f 127/127/127 128/128/128 129/129/129
f 130/130/130 131/131/131 132/132/132
f 133/133/133 134/134/134 135/135/135
f 136/136/136 137/137/137 138/138/138
f 139/139/139 140/140/140 141/141/141
f 142/142/142 143/143/143 144/144/144
f 145/145/145 146/146/146 147/147/147
f 148/148/148 149/149/149 150/150/150
f 151/151/151 152/152/152 153/153/153
f 154/154/154 155/155/155 156/156/156
f 157/157/157 158/158/158 159/159/159
f 160/160/160 161/161/161 162/162/162
f 163/163/163 164/164/164 165/165/165
f 166/166/166 167/167/167 168/168/168
f 169/169/169 170/170/170 171/171/171
f 172/172/172 173/173/173 174/174/174
f 175/175/175 176/176/176 177/177/177
f 178/178/178 179/179/179 180/180/180
f 181/181/181 182/182/182 183/183/183
f 184/184/184 185/185/185 186/186/186
f 187/187/187 188/188/188 189/189/189
f 190/190/190 191/191/191 192/192/192
f 193/193/193 194/194/194 195/195/195
f 196/196/196 197/197/197 198/198/198
f 199/199/199 200/200/200 201/201/201
f 202/202/202 203/203/203 204/204/204
f 205/205/205 206/206/206 207/207/207
f 208/208/208 209/209/209 210/210/210
f 211/211/211 212/212/212 213/213/213
f 214/214/214 215/215/215 216/216/216
f 217/217/217 218/218/218 219/219/219
f 220/220/220 221/221/221 222/222/222
f 223/223/223 224/224/224 225/225/225
f 226/226/226 227/227/227 228/228/228
f 229/229/229 230/230/230 231/231/231
f 232/232/232 233/233/233 234/234/234
f 235/235/235 236/236/236 237/237/237
f 238/238/238 239/239/239 240/240/240
f 241/241/241 242/242/242 243/243/243
f 244/244/244 245/245/245 246/246/246
f 247/247/247 248/248/248 249/249/249
f 250/250/250 251/251/251 252/252/252
f 253/253/253 254/254/254 255/255/255
f 256/256/256 257/257/257 258/258/258
f 259/259/259 260/260/260 261/261/261
f 262/262/262 263/263/263 264/264/264
f 265/265/265 266/266/266 267/267/267
f 268/268/268 269/269/269 270/270/270
f 271/271/271 272/272/272 273/273/273
f 274/274/274 275/275/275 276/276/276
o top_cap
usemtl blox_green
v -0.38999998569488525 0.9849999991683074 0.38999998569488525
v -0.38999998569488525 0.9849999991683075 -0.38999998569488525
v 0.38999998569488525 0.9849999991683075 -0.38999998569488525
v 0.38999998569488525 0.9849999991683075 -0.38999998569488525
v 0.38999998569488525 0.9849999991683074 0.38999998569488525
v -0.38999998569488525 0.9849999991683074 0.38999998569488525
v 0.38999998569488525 1.085000000831693 -0.38999998569488525
v -0.38999998569488525 1.085000000831693 -0.38999998569488525
v -0.38999998569488525 1.0850000008316927 0.38999998569488525
v -0.38999998569488525 1.0850000008316927 0.38999998569488525
v 0.38999998569488525 1.0850000008316927 0.38999998569488525
v 0.38999998569488525 1.085000000831693 -0.38999998569488525
v -0.38999998569488525 0.9849999991683074 0.38999998569488525
v 0.38999998569488525 0.9849999991683074 0.38999998569488525
v -0.4023606777191162 0.9852276438613271 0.4023606777191162
v 0.38999998569488525 0.9849999991683074 0.38999998569488525
v 0.4023606777191162 0.9852276438613271 0.4023606777191162
v -0.4023606777191162 0.9852276438613271 0.4023606777191162
v -0.4023606777191162 0.9852276438613271 0.4023606777191162
v 0.4023606777191162 0.9852276438613271 0.4023606777191162
v -0.41351139545440674 0.9858882920409359 0.41351139545440674
v 0.4023606777191162 0.9852276438613271 0.4023606777191162
v 0.41351139545440674 0.9858882920409359 0.41351139545440674
v -0.41351139545440674 0.9858882920409359 0.41351139545440674
v -0.41351139545440674 0.9858882920409359 0.41351139545440674
v 0.41351139545440674 0.9858882920409359 0.41351139545440674
v -0.42236068844795227 0.9869172795983249 0.42236068844795227
v 0.41351139545440674 0.9858882920409359 0.41351139545440674
v 0.42236068844795227 0.9869172795983249 0.42236068844795227
v -0.42236068844795227 0.9869172795983249 0.42236068844795227
v -0.42236068844795227 0.9869172795983249 0.42236068844795227
v 0.42236068844795227 0.9869172795983249 0.42236068844795227
v -0.4280422627925873 0.9882138746838237 0.4280422627925873
v 0.42236068844795227 0.9869172795983249 0.42236068844795227
v 0.4280422627925873 0.9882138746838237 0.4280422627925873
v -0.4280422627925873 0.9882138746838237 0.4280422627925873
v -0.4280422627925873 0.9882138746838237 0.4280422627925873
v 0.4280422627925873 0.9882138746838237 0.4280422627925873
v -0.4300000071525574 0.9896511644540832 0.4300000071525574
v 0.4280422627925873 0.9882138746838237 0.4280422627925873
v 0.4300000071525574 0.9896511644540832 0.4300000071525574
v -0.4300000071525574 0.9896511644540832 0.4300000071525574
v -0.4300000071525574 0.9896511644540832 0.4300000071525574
v 0.4300000071525574 0.9896511644540832 0.4300000071525574
v -0.4300000071525574 1.080348835545917 0.4300000071525574
v 0.4300000071525574 0.9896511644540832 0.4300000071525574
v 0.4300000071525574 1.080348835545917 0.4300000071525574
v -0.4300000071525574 1.080348835545917 0.4300000071525574
v -0.4300000071525574 1.080348835545917 0.4300000071525574
v 0.4300000071525574 1.080348835545917 0.4300000071525574
v -0.4280422627925873 1.0817861253161762 0.4280422627925873
v 0.4300000071525574 1.080348835545917 0.4300000071525574
v 0.4280422627925873 1.0817861253161762 0.4280422627925873
v -0.4280422627925873 1.0817861253161762 0.4280422627925873
v -0.4280422627925873 1.0817861253161762 0.4280422627925873
v 0.4280422627925873 1.0817861253161762 0.4280422627925873
v -0.42236068844795227 1.0830827204016753 0.42236068844795227
v 0.4280422627925873 1.0817861253161762 0.4280422627925873
v 0.42236068844795227 1.0830827204016753 0.42236068844795227
v -0.42236068844795227 1.0830827204016753 0.42236068844795227
v -0.42236068844795227 1.0830827204016753 0.42236068844795227
v 0.42236068844795227 1.0830827204016753 0.42236068844795227
v -0.41351139545440674 1.0841117114244505 0.41351139545440674
v 0.42236068844795227 1.0830827204016753 0.42236068844795227
v 0.41351139545440674 1.0841117114244505 0.41351139545440674
v -0.41351139545440674 1.0841117114244505 0.41351139545440674
v -0.41351139545440674 1.0841117114244505 0.41351139545440674
v 0.41351139545440674 1.0841117114244505 0.41351139545440674
v -0.4023606777191162 1.0847723596040593 0.4023606777191162
v 0.41351139545440674 1.0841117114244505 0.41351139545440674
v 0.4023606777191162 1.0847723596040593 0.4023606777191162
v -0.4023606777191162 1.0847723596040593 0.4023606777191162
v -0.4023606777191162 1.0847723596040593 0.4023606777191162
v 0.4023606777191162 1.0847723596040593 0.4023606777191162
v -0.38999998569488525 1.0850000008316927 0.38999998569488525
v 0.4023606777191162 1.0847723596040593 0.4023606777191162
v 0.38999998569488525 1.0850000008316927 0.38999998569488525
v -0.38999998569488525 1.0850000008316927 0.38999998569488525
v 0.38999998569488525 0.9849999991683074 0.38999998569488525
v 0.38999998569488525 0.9849999991683075 -0.38999998569488525
v 0.4023606777191162 0.9852276438613271 0.4023606777191162
v 0.38999998569488525 0.9849999991683075 -0.38999998569488525
v 0.4023606777191162 0.9852276438613273 -0.4023606777191162
v 0.4023606777191162 0.9852276438613271 0.4023606777191162
v 0.4023606777191162 0.9852276438613271 0.4023606777191162
v 0.4023606777191162 0.9852276438613273 -0.4023606777191162
v 0.41351139545440674 0.9858882920409359 0.41351139545440674
v 0.4023606777191162 0.9852276438613273 -0.4023606777191162
v 0.41351139545440674 0.985888292040936 -0.41351139545440674
v 0.41351139545440674 0.9858882920409359 0.41351139545440674
v 0.41351139545440674 0.9858882920409359 0.41351139545440674
v 0.41351139545440674 0.985888292040936 -0.41351139545440674
v 0.42236068844795227 0.9869172795983249 0.42236068844795227
v 0.41351139545440674 0.985888292040936 -0.41351139545440674
v 0.42236068844795227 0.986917279598325 -0.42236068844795227
v 0.42236068844795227 0.9869172795983249 0.42236068844795227
v 0.42236068844795227 0.9869172795983249 0.42236068844795227
v 0.42236068844795227 0.986917279598325 -0.42236068844795227
v 0.4280422627925873 0.9882138746838237 0.4280422627925873
v 0.42236068844795227 0.986917279598325 -0.42236068844795227
v 0.4280422627925873 0.9882138746838239 -0.4280422627925873
v 0.4280422627925873 0.9882138746838237 0.4280422627925873
v 0.4280422627925873 0.9882138746838237 0.4280422627925873
v 0.4280422627925873 0.9882138746838239 -0.4280422627925873
v 0.4300000071525574 0.9896511644540832 0.4300000071525574
v 0.4280422627925873 0.9882138746838239 -0.4280422627925873
v 0.4300000071525574 0.9896511644540833 -0.4300000071525574
v 0.4300000071525574 0.9896511644540832 0.4300000071525574
v 0.4300000071525574 0.9896511644540832 0.4300000071525574
v 0.4300000071525574 0.9896511644540833 -0.4300000071525574
v 0.4300000071525574 1.080348835545917 0.4300000071525574
v 0.4300000071525574 0.9896511644540833 -0.4300000071525574
v 0.4300000071525574 1.0803488355459172 -0.4300000071525574
v 0.4300000071525574 1.080348835545917 0.4300000071525574
v 0.4300000071525574 1.080348835545917 0.4300000071525574
v 0.4300000071525574 1.0803488355459172 -0.4300000071525574
v 0.4280422627925873 1.0817861253161762 0.4280422627925873
v 0.4300000071525574 1.0803488355459172 -0.4300000071525574
v 0.4280422627925873 1.0817861253161765 -0.4280422627925873
v 0.4280422627925873 1.0817861253161762 0.4280422627925873
v 0.4280422627925873 1.0817861253161762 0.4280422627925873
v 0.4280422627925873 1.0817861253161765 -0.4280422627925873
v 0.42236068844795227 1.0830827204016753 0.42236068844795227
v 0.4280422627925873 1.0817861253161765 -0.4280422627925873
v 0.42236068844795227 1.0830827204016755 -0.42236068844795227
v 0.42236068844795227 1.0830827204016753 0.42236068844795227
v 0.42236068844795227 1.0830827204016753 0.42236068844795227
v 0.42236068844795227 1.0830827204016755 -0.42236068844795227
v 0.41351139545440674 1.0841117114244505 0.41351139545440674
v 0.42236068844795227 1.0830827204016755 -0.42236068844795227
v 0.41351139545440674 1.0841117114244507 -0.41351139545440674
v 0.41351139545440674 1.0841117114244505 0.41351139545440674
v 0.41351139545440674 1.0841117114244505 0.41351139545440674
v 0.41351139545440674 1.0841117114244507 -0.41351139545440674
v 0.4023606777191162 1.0847723596040593 0.4023606777191162
v 0.41351139545440674 1.0841117114244507 -0.41351139545440674
v 0.4023606777191162 1.0847723596040595 -0.4023606777191162
v 0.4023606777191162 1.0847723596040593 0.4023606777191162
v 0.4023606777191162 1.0847723596040593 0.4023606777191162
v 0.4023606777191162 1.0847723596040595 -0.4023606777191162
v 0.38999998569488525 1.0850000008316927 0.38999998569488525
v 0.4023606777191162 1.0847723596040595 -0.4023606777191162
v 0.38999998569488525 1.085000000831693 -0.38999998569488525
v 0.38999998569488525 1.0850000008316927 0.38999998569488525
v 0.38999998569488525 0.9849999991683075 -0.38999998569488525
v -0.38999998569488525 0.9849999991683075 -0.38999998569488525
v 0.4023606777191162 0.9852276438613273 -0.4023606777191162
v -0.38999998569488525 0.9849999991683075 -0.38999998569488525
v -0.4023606777191162 0.9852276438613273 -0.4023606777191162
v 0.4023606777191162 0.9852276438613273 -0.4023606777191162
v 0.4023606777191162 0.9852276438613273 -0.4023606777191162
v -0.4023606777191162 0.9852276438613273 -0.4023606777191162
v 0.41351139545440674 0.985888292040936 -0.41351139545440674
v -0.4023606777191162 0.9852276438613273 -0.4023606777191162
v -0.41351139545440674 0.985888292040936 -0.41351139545440674
v 0.41351139545440674 0.985888292040936 -0.41351139545440674
v 0.41351139545440674 0.985888292040936 -0.41351139545440674
v -0.41351139545440674 0.985888292040936 -0.41351139545440674
v 0.42236068844795227 0.986917279598325 -0.42236068844795227
v -0.41351139545440674 0.985888292040936 -0.41351139545440674
v -0.42236068844795227 0.986917279598325 -0.42236068844795227
v 0.42236068844795227 0.986917279598325 -0.42236068844795227
v 0.42236068844795227 0.986917279598325 -0.42236068844795227
v -0.42236068844795227 0.986917279598325 -0.42236068844795227
v 0.4280422627925873 0.9882138746838239 -0.4280422627925873
v -0.42236068844795227 0.986917279598325 -0.42236068844795227
v -0.4280422627925873 0.9882138746838239 -0.4280422627925873
v 0.4280422627925873 0.9882138746838239 -0.4280422627925873
v 0.4280422627925873 0.9882138746838239 -0.4280422627925873
v -0.4280422627925873 0.9882138746838239 -0.4280422627925873
v 0.4300000071525574 0.9896511644540833 -0.4300000071525574
v -0.4280422627925873 0.9882138746838239 -0.4280422627925873
v -0.4300000071525574 0.9896511644540833 -0.4300000071525574
v 0.4300000071525574 0.9896511644540833 -0.4300000071525574
v 0.4300000071525574 0.9896511644540833 -0.4300000071525574
v -0.4300000071525574 0.9896511644540833 -0.4300000071525574
v 0.4300000071525574 1.0803488355459172 -0.4300000071525574
v -0.4300000071525574 0.9896511644540833 -0.4300000071525574
v -0.4300000071525574 1.0803488355459172 -0.4300000071525574
v 0.4300000071525574 1.0803488355459172 -0.4300000071525574
v 0.4300000071525574 1.0803488355459172 -0.4300000071525574
v -0.4300000071525574 1.0803488355459172 -0.4300000071525574
v 0.4280422627925873 1.0817861253161765 -0.4280422627925873
v -0.4300000071525574 1.0803488355459172 -0.4300000071525574
v -0.4280422627925873 1.0817861253161765 -0.4280422627925873
v 0.4280422627925873 1.0817861253161765 -0.4280422627925873
v 0.4280422627925873 1.0817861253161765 -0.4280422627925873
v -0.4280422627925873 1.0817861253161765 -0.4280422627925873
v 0.42236068844795227 1.0830827204016755 -0.42236068844795227
v -0.4280422627925873 1.0817861253161765 -0.4280422627925873
v -0.42236068844795227 1.0830827204016755 -0.42236068844795227
v 0.42236068844795227 1.0830827204016755 -0.42236068844795227
v 0.42236068844795227 1.0830827204016755 -0.42236068844795227
v -0.42236068844795227 1.0830827204016755 -0.42236068844795227
v 0.41351139545440674 1.0841117114244507 -0.41351139545440674
v -0.42236068844795227 1.0830827204016755 -0.42236068844795227
v -0.41351139545440674 1.0841117114244507 -0.41351139545440674
v 0.41351139545440674 1.0841117114244507 -0.41351139545440674
v 0.41351139545440674 1.0841117114244507 -0.41351139545440674
v -0.41351139545440674 1.0841117114244507 -0.41351139545440674
v 0.4023606777191162 1.0847723596040595 -0.4023606777191162
v -0.41351139545440674 1.0841117114244507 -0.41351139545440674
v -0.4023606777191162 1.0847723596040595 -0.4023606777191162
v 0.4023606777191162 1.0847723596040595 -0.4023606777191162
v 0.4023606777191162 1.0847723596040595 -0.4023606777191162
v -0.4023606777191162 1.0847723596040595 -0.4023606777191162
v 0.38999998569488525 1.085000000831693 -0.38999998569488525
v -0.4023606777191162 1.0847723596040595 -0.4023606777191162
v -0.38999998569488525 1.085000000831693 -0.38999998569488525
v 0.38999998569488525 1.085000000831693 -0.38999998569488525
v -0.38999998569488525 0.9849999991683075 -0.38999998569488525
v -0.38999998569488525 0.9849999991683074 0.38999998569488525
v -0.4023606777191162 0.9852276438613273 -0.4023606777191162
v -0.38999998569488525 0.9849999991683074 0.38999998569488525
v -0.4023606777191162 0.9852276438613271 0.4023606777191162
v -0.4023606777191162 0.9852276438613273 -0.4023606777191162
v -0.4023606777191162 0.9852276438613273 -0.4023606777191162
v -0.4023606777191162 0.9852276438613271 0.4023606777191162
v -0.41351139545440674 0.985888292040936 -0.41351139545440674
v -0.4023606777191162 0.9852276438613271 0.4023606777191162
v -0.41351139545440674 0.9858882920409359 0.41351139545440674
v -0.41351139545440674 0.985888292040936 -0.41351139545440674
v -0.41351139545440674 0.985888292040936 -0.41351139545440674
v -0.41351139545440674 0.9858882920409359 0.41351139545440674
v -0.42236068844795227 0.986917279598325 -0.42236068844795227
v -0.41351139545440674 0.9858882920409359 0.41351139545440674
v -0.42236068844795227 0.9869172795983249 0.42236068844795227
v -0.42236068844795227 0.986917279598325 -0.42236068844795227
v -0.42236068844795227 0.986917279598325 -0.42236068844795227
v -0.42236068844795227 0.9869172795983249 0.42236068844795227
v -0.4280422627925873 0.9882138746838239 -0.4280422627925873
v -0.42236068844795227 0.9869172795983249 0.42236068844795227
v -0.4280422627925873 0.9882138746838237 0.4280422627925873
v -0.4280422627925873 0.9882138746838239 -0.4280422627925873
v -0.4280422627925873 0.9882138746838239 -0.4280422627925873
v -0.4280422627925873 0.9882138746838237 0.4280422627925873
v -0.4300000071525574 0.9896511644540833 -0.4300000071525574
v -0.4280422627925873 0.9882138746838237 0.4280422627925873
v -0.4300000071525574 0.9896511644540832 0.4300000071525574
v -0.4300000071525574 0.9896511644540833 -0.4300000071525574
v -0.4300000071525574 0.9896511644540833 -0.4300000071525574
v -0.4300000071525574 0.9896511644540832 0.4300000071525574
v -0.4300000071525574 1.0803488355459172 -0.4300000071525574
v -0.4300000071525574 0.9896511644540832 0.4300000071525574
v -0.4300000071525574 1.080348835545917 0.4300000071525574
v -0.4300000071525574 1.0803488355459172 -0.4300000071525574
v -0.4300000071525574 1.0803488355459172 -0.4300000071525574
v -0.4300000071525574 1.080348835545917 0.4300000071525574
v -0.4280422627925873 1.0817861253161765 -0.4280422627925873
v -0.4300000071525574 1.080348835545917 0.4300000071525574
v -0.4280422627925873 1.0817861253161762 0.4280422627925873
v -0.4280422627925873 1.0817861253161765 -0.4280422627925873
v -0.4280422627925873 1.0817861253161765 -0.4280422627925873
v -0.4280422627925873 1.0817861253161762 0.4280422627925873
v -0.42236068844795227 1.0830827204016755 -0.42236068844795227
v -0.4280422627925873 1.0817861253161762 0.4280422627925873
v -0.42236068844795227 1.0830827204016753 0.42236068844795227
v -0.42236068844795227 1.0830827204016755 -0.42236068844795227
v -0.42236068844795227 1.0830827204016755 -0.42236068844795227
v -0.42236068844795227 1.0830827204016753 0.42236068844795227
v -0.41351139545440674 1.0841117114244507 -0.41351139545440674
v -0.42236068844795227 1.0830827204016753 0.42236068844795227
v -0.41351139545440674 1.0841117114244505 0.41351139545440674
v -0.41351139545440674 1.0841117114244507 -0.41351139545440674
v -0.41351139545440674 1.0841117114244507 -0.41351139545440674
v -0.41351139545440674 1.0841117114244505 0.41351139545440674
v -0.4023606777191162 1.0847723596040595 -0.4023606777191162
v -0.41351139545440674 1.0841117114244505 0.41351139545440674
v -0.4023606777191162 1.0847723596040593 0.4023606777191162
v -0.4023606777191162 1.0847723596040595 -0.4023606777191162
v -0.4023606777191162 1.0847723596040595 -0.4023606777191162
v -0.4023606777191162 1.0847723596040593 0.4023606777191162
v -0.38999998569488525 1.085000000831693 -0.38999998569488525
v -0.4023606777191162 1.0847723596040593 0.4023606777191162
v -0.38999998569488525 1.0850000008316927 0.38999998569488525
v -0.38999998569488525 1.085000000831693 -0.38999998569488525
vt -0.38999998569488525 -0.38999998569488525
vt -0.38999998569488525 0.38999998569488525
vt 0.38999998569488525 0.38999998569488525
vt 0.38999998569488525 0.38999998569488525
vt 0.38999998569488525 -0.38999998569488525
vt -0.38999998569488525 -0.38999998569488525
vt 0.38999998569488525 0.38999998569488525
vt -0.38999998569488525 0.38999998569488525
vt -0.38999998569488525 -0.38999998569488525
vt -0.38999998569488525 -0.38999998569488525
vt 0.38999998569488525 -0.38999998569488525
vt 0.38999998569488525 0.38999998569488525
vt -0.38999998569488525 1.0399999618530273
vt 0.38999998569488525 1.0399999618530273
vt -0.4023606777191162 1.0380423069000244
vt 0.38999998569488525 1.0399999618530273
vt 0.4023606777191162 1.0380423069000244
vt -0.4023606777191162 1.0380423069000244
vt -0.4023606777191162 1.0380423069000244
vt 0.4023606777191162 1.0380423069000244
vt -0.41351139545440674 1.0323606729507446
vt 0.4023606777191162 1.0380423069000244
vt 0.41351139545440674 1.0323606729507446
vt -0.41351139545440674 1.0323606729507446
vt -0.41351139545440674 1.0323606729507446
vt 0.41351139545440674 1.0323606729507446
vt -0.42236068844795227 1.0235114097595215
vt 0.41351139545440674 1.0323606729507446
vt 0.42236068844795227 1.0235114097595215
vt -0.42236068844795227 1.0235114097595215
vt -0.42236068844795227 1.0235114097595215
vt 0.42236068844795227 1.0235114097595215
vt -0.4280422627925873 1.012360692024231
vt 0.42236068844795227 1.0235114097595215
vt 0.4280422627925873 1.012360692024231
vt -0.4280422627925873 1.012360692024231
vt -0.4280422627925873 1.012360692024231
vt 0.4280422627925873 1.012360692024231
vt -0.4300000071525574 1
vt 0.4280422627925873 1.012360692024231
vt 0.4300000071525574 1
vt -0.4300000071525574 1
vt -0.4300000071525574 1
vt 0.4300000071525574 1
vt -0.4300000071525574 0.2199999988079071
vt 0.4300000071525574 1
vt 0.4300000071525574 0.2199999988079071
vt -0.4300000071525574 0.2199999988079071
vt -0.4300000071525574 0.2199999988079071
vt 0.4300000071525574 0.2199999988079071
vt -0.4280422627925873 0.20763932168483734
vt 0.4300000071525574 0.2199999988079071
vt 0.4280422627925873 0.20763932168483734
vt -0.4280422627925873 0.20763932168483734
vt -0.4280422627925873 0.20763932168483734
vt 0.4280422627925873 0.20763932168483734
vt -0.42236068844795227 0.19648858904838562
vt 0.4280422627925873 0.20763932168483734
vt 0.42236068844795227 0.19648858904838562
vt -0.42236068844795227 0.19648858904838562
vt -0.42236068844795227 0.19648858904838562
vt 0.42236068844795227 0.19648858904838562
vt -0.41351139545440674 0.18763932585716248
vt 0.42236068844795227 0.19648858904838562
vt 0.41351139545440674 0.18763932585716248
vt -0.41351139545440674 0.18763932585716248
vt -0.41351139545440674 0.18763932585716248
vt 0.41351139545440674 0.18763932585716248
vt -0.4023606777191162 0.18195773661136627
vt 0.41351139545440674 0.18763932585716248
vt 0.4023606777191162 0.18195773661136627
vt -0.4023606777191162 0.18195773661136627
vt -0.4023606777191162 0.18195773661136627
vt 0.4023606777191162 0.18195773661136627
vt -0.38999998569488525 0.18000000715255737
vt 0.4023606777191162 0.18195773661136627
vt 0.38999998569488525 0.18000000715255737
vt -0.38999998569488525 0.18000000715255737
vt -0.38999998569488525 1.0399999618530273
vt 0.38999998569488525 1.0399999618530273
vt -0.4023606777191162 1.0380423069000244
vt 0.38999998569488525 1.0399999618530273
vt 0.4023606777191162 1.0380423069000244
vt -0.4023606777191162 1.0380423069000244
vt -0.4023606777191162 1.0380423069000244
vt 0.4023606777191162 1.0380423069000244
vt -0.41351139545440674 1.0323606729507446
vt 0.4023606777191162 1.0380423069000244
vt 0.41351139545440674 1.0323606729507446
vt -0.41351139545440674 1.0323606729507446
vt -0.41351139545440674 1.0323606729507446
vt 0.41351139545440674 1.0323606729507446
vt -0.42236068844795227 1.0235114097595215
vt 0.41351139545440674 1.0323606729507446
vt 0.42236068844795227 1.0235114097595215
vt -0.42236068844795227 1.0235114097595215
vt -0.42236068844795227 1.0235114097595215
vt 0.42236068844795227 1.0235114097595215
vt -0.4280422627925873 1.012360692024231
vt 0.42236068844795227 1.0235114097595215
vt 0.4280422627925873 1.012360692024231
vt -0.4280422627925873 1.012360692024231
vt -0.4280422627925873 1.012360692024231
vt 0.4280422627925873 1.012360692024231
vt -0.4300000071525574 1
vt 0.4280422627925873 1.012360692024231
vt 0.4300000071525574 1
vt -0.4300000071525574 1
vt -0.4300000071525574 1
vt 0.4300000071525574 1
vt -0.4300000071525574 0.2199999988079071
vt 0.4300000071525574 1
vt 0.4300000071525574 0.2199999988079071
vt -0.4300000071525574 0.2199999988079071
vt -0.4300000071525574 0.2199999988079071
vt 0.4300000071525574 0.2199999988079071
vt -0.4280422627925873 0.20763932168483734
vt 0.4300000071525574 0.2199999988079071
vt 0.4280422627925873 0.20763932168483734
vt -0.4280422627925873 0.20763932168483734
vt -0.4280422627925873 0.20763932168483734
vt 0.4280422627925873 0.20763932168483734
vt -0.42236068844795227 0.19648858904838562
vt 0.4280422627925873 0.20763932168483734
vt 0.42236068844795227 0.19648858904838562
vt -0.42236068844795227 0.19648858904838562
vt -0.42236068844795227 0.19648858904838562
vt 0.42236068844795227 0.19648858904838562
vt -0.41351139545440674 0.18763932585716248
vt 0.42236068844795227 0.19648858904838562
vt 0.41351139545440674 0.18763932585716248
vt -0.41351139545440674 0.18763932585716248
vt -0.41351139545440674 0.18763932585716248
vt 0.41351139545440674 0.18763932585716248
vt -0.4023606777191162 0.18195773661136627
vt 0.41351139545440674 0.18763932585716248
vt 0.4023606777191162 0.18195773661136627
vt -0.4023606777191162 0.18195773661136627
vt -0.4023606777191162 0.18195773661136627
vt 0.4023606777191162 0.18195773661136627
vt -0.38999998569488525 0.18000000715255737
vt 0.4023606777191162 0.18195773661136627
vt 0.38999998569488525 0.18000000715255737
vt -0.38999998569488525 0.18000000715255737
vt 0.38999998569488525 1.0399999618530273
vt -0.38999998569488525 1.0399999618530273
vt 0.4023606777191162 1.0380423069000244
vt -0.38999998569488525 1.0399999618530273
vt -0.4023606777191162 1.0380423069000244
vt 0.4023606777191162 1.0380423069000244
vt 0.4023606777191162 1.0380423069000244
vt -0.4023606777191162 1.0380423069000244
vt 0.41351139545440674 1.0323606729507446
vt -0.4023606777191162 1.0380423069000244
vt -0.41351139545440674 1.0323606729507446
vt 0.41351139545440674 1.0323606729507446
vt 0.41351139545440674 1.0323606729507446
vt -0.41351139545440674 1.0323606729507446
vt 0.42236068844795227 1.0235114097595215
vt -0.41351139545440674 1.0323606729507446
vt -0.42236068844795227 1.0235114097595215
vt 0.42236068844795227 1.0235114097595215
vt 0.42236068844795227 1.0235114097595215
vt -0.42236068844795227 1.0235114097595215
vt 0.4280422627925873 1.012360692024231
vt -0.42236068844795227 1.0235114097595215
vt -0.4280422627925873 1.012360692024231
vt 0.4280422627925873 1.012360692024231
vt 0.4280422627925873 1.012360692024231
vt -0.4280422627925873 1.012360692024231
vt 0.4300000071525574 1
vt -0.4280422627925873 1.012360692024231
vt -0.4300000071525574 1
vt 0.4300000071525574 1
vt 0.4300000071525574 1
vt -0.4300000071525574 1
vt 0.4300000071525574 0.2199999988079071
vt -0.4300000071525574 1
vt -0.4300000071525574 0.2199999988079071
vt 0.4300000071525574 0.2199999988079071
vt 0.4300000071525574 0.2199999988079071
vt -0.4300000071525574 0.2199999988079071
vt 0.4280422627925873 0.20763932168483734
vt -0.4300000071525574 0.2199999988079071
vt -0.4280422627925873 0.20763932168483734
vt 0.4280422627925873 0.20763932168483734
vt 0.4280422627925873 0.20763932168483734
vt -0.4280422627925873 0.20763932168483734
vt 0.42236068844795227 0.19648858904838562
vt -0.4280422627925873 0.20763932168483734
vt -0.42236068844795227 0.19648858904838562
vt 0.42236068844795227 0.19648858904838562
vt 0.42236068844795227 0.19648858904838562
vt -0.42236068844795227 0.19648858904838562
vt 0.41351139545440674 0.18763932585716248
vt -0.42236068844795227 0.19648858904838562
vt -0.41351139545440674 0.18763932585716248
vt 0.41351139545440674 0.18763932585716248
vt 0.41351139545440674 0.18763932585716248
vt -0.41351139545440674 0.18763932585716248
vt 0.4023606777191162 0.18195773661136627
vt -0.41351139545440674 0.18763932585716248
vt -0.4023606777191162 0.18195773661136627
vt 0.4023606777191162 0.18195773661136627
vt 0.4023606777191162 0.18195773661136627
vt -0.4023606777191162 0.18195773661136627
vt 0.38999998569488525 0.18000000715255737
vt -0.4023606777191162 0.18195773661136627
vt -0.38999998569488525 0.18000000715255737
vt 0.38999998569488525 0.18000000715255737
vt 0.38999998569488525 1.0399999618530273
vt -0.38999998569488525 1.0399999618530273
vt 0.4023606777191162 1.0380423069000244
vt -0.38999998569488525 1.0399999618530273
vt -0.4023606777191162 1.0380423069000244
vt 0.4023606777191162 1.0380423069000244
vt 0.4023606777191162 1.0380423069000244
vt -0.4023606777191162 1.0380423069000244
vt 0.41351139545440674 1.0323606729507446
vt -0.4023606777191162 1.0380423069000244
vt -0.41351139545440674 1.0323606729507446
vt 0.41351139545440674 1.0323606729507446
vt 0.41351139545440674 1.0323606729507446
vt -0.41351139545440674 1.0323606729507446
vt 0.42236068844795227 1.0235114097595215
vt -0.41351139545440674 1.0323606729507446
vt -0.42236068844795227 1.0235114097595215
vt 0.42236068844795227 1.0235114097595215
vt 0.42236068844795227 1.0235114097595215
vt -0.42236068844795227 1.0235114097595215
vt 0.4280422627925873 1.012360692024231
vt -0.42236068844795227 1.0235114097595215
vt -0.4280422627925873 1.012360692024231
vt 0.4280422627925873 1.012360692024231
vt 0.4280422627925873 1.012360692024231
vt -0.4280422627925873 1.012360692024231
vt 0.4300000071525574 1
vt -0.4280422627925873 1.012360692024231
vt -0.4300000071525574 1
vt 0.4300000071525574 1
vt 0.4300000071525574 1
vt -0.4300000071525574 1
vt 0.4300000071525574 0.2199999988079071
vt -0.4300000071525574 1
vt -0.4300000071525574 0.2199999988079071
vt 0.4300000071525574 0.2199999988079071
vt 0.4300000071525574 0.2199999988079071
vt -0.4300000071525574 0.2199999988079071
vt 0.4280422627925873 0.20763932168483734
vt -0.4300000071525574 0.2199999988079071
vt -0.4280422627925873 0.20763932168483734
vt 0.4280422627925873 0.20763932168483734
vt 0.4280422627925873 0.20763932168483734
vt -0.4280422627925873 0.20763932168483734
vt 0.42236068844795227 0.19648858904838562
vt -0.4280422627925873 0.20763932168483734
vt -0.42236068844795227 0.19648858904838562
vt 0.42236068844795227 0.19648858904838562
vt 0.42236068844795227 0.19648858904838562
vt -0.42236068844795227 0.19648858904838562
vt 0.41351139545440674 0.18763932585716248
vt -0.42236068844795227 0.19648858904838562
vt -0.41351139545440674 0.18763932585716248
vt 0.41351139545440674 0.18763932585716248
vt 0.41351139545440674 0.18763932585716248
vt -0.41351139545440674 0.18763932585716248
vt 0.4023606777191162 0.18195773661136627
vt -0.41351139545440674 0.18763932585716248
vt -0.4023606777191162 0.18195773661136627
vt 0.4023606777191162 0.18195773661136627
vt 0.4023606777191162 0.18195773661136627
vt -0.4023606777191162 0.18195773661136627
vt 0.38999998569488525 0.18000000715255737
vt -0.4023606777191162 0.18195773661136627
vt -0.38999998569488525 0.18000000715255737
vt 0.38999998569488525 0.18000000715255737
vn 0 -1 -2.220446049250313e-16
vn 0 -1 -2.220446049250313e-16
vn 0 -1 -2.220446049250313e-16
vn 0 -1 -2.220446049250313e-16
vn 0 -1 -2.220446049250313e-16
vn 0 -1 -2.220446049250313e-16
vn 0 1 2.220446049250313e-16
vn 0 1 2.220446049250313e-16
vn 0 1 2.220446049250313e-16
vn 0 1 2.220446049250313e-16
vn 0 1 2.220446049250313e-16
vn 0 1 2.220446049250313e-16
vn 0 -0.9998304547308403 0.018413630623025524
vn 0 -0.9998304547308403 0.018413630623025524
vn 0 -0.9998304547308403 0.018413630623025524
vn 0 -0.9998304546985483 0.018413632376424634
vn 0 -0.9998304546985483 0.018413632376424634
vn 0 -0.9998304546985483 0.018413632376424634
vn 0 -0.9982494905394385 0.05914350883868676
vn 0 -0.9982494905394385 0.05914350883868676
vn 0 -0.9982494905394385 0.05914350883868676
vn 0 -0.9982494905394385 0.05914350883868676
vn 0 -0.9982494905394385 0.05914350883868676
vn 0 -0.9982494905394385 0.05914350883868676
vn 0 -0.9933074138108635 0.11550056999155454
vn 0 -0.9933074138108635 0.11550056999155454
vn 0 -0.9933074138108635 0.11550056999155454
vn 0 -0.9933074138108635 0.11550056999155454
vn 0 -0.9933074138108635 0.11550056999155454
vn 0 -0.9933074138108635 0.11550056999155454
vn 0 -0.9749348286061733 0.22249062895019026
vn 0 -0.9749348286061733 0.22249062895019026
vn 0 -0.9749348286061733 0.22249062895019026
vn 0 -0.9749348317743013 0.2224906150677251
vn 0 -0.9749348317743013 0.2224906150677251
vn 0 -0.9749348317743013 0.2224906150677251
vn 0 -0.8060889023606364 0.5917944588208176
vn 0 -0.8060889023606364 0.5917944588208176
vn 0 -0.8060889023606364 0.5917944588208176
vn 0 -0.8060889292519053 0.5917944221919609
vn 0 -0.8060889292519053 0.5917944221919609
vn 0 -0.8060889292519053 0.5917944221919609
vn 0 -2.220446049250313e-16 1
vn 0 -2.220446049250313e-16 1
vn 0 -2.220446049250313e-16 1
vn 0 -2.220446049250313e-16 1
vn 0 -2.220446049250313e-16 1
vn 0 -2.220446049250313e-16 1
vn 0 0.8060886603389908 0.5917947884806786
vn 0 0.8060886603389908 0.5917947884806786
vn 0 0.8060886603389908 0.5917947884806786
vn 0 0.806088633447672 0.5917948251095686
vn 0 0.806088633447672 0.5917948251095686
vn 0 0.806088633447672 0.5917948251095686
vn 0 0.9749348826453351 0.2224903921550921
vn 0 0.9749348826453351 0.2224903921550921
vn 0 0.9749348826453351 0.2224903921550921
vn 0 0.9749348826453351 0.2224903921550921
vn 0 0.9749348826453351 0.2224903921550921
vn 0 0.9749348826453351 0.2224903921550921
vn 0 0.9933073356215153 0.11550124241966567
vn 0 0.9933073356215153 0.11550124241966567
vn 0 0.9933073356215153 0.11550124241966567
vn 0 0.9933073356215153 0.11550124241966567
vn 0 0.9933073356215153 0.11550124241966567
vn 0 0.9933073356215153 0.11550124241966567
vn 0 0.9982494949121199 0.059143435034647536
vn 0 0.9982494949121199 0.059143435034647536
vn 0 0.9982494949121199 0.059143435034647536
vn 0 0.9982494951413414 0.05914343116574251
vn 0 0.9982494951413414 0.05914343116574251
vn 0 0.9982494951413414 0.05914343116574251
vn 0 0.9998304585908042 0.018413421032011337
vn 0 0.9998304585908042 0.018413421032011337
vn 0 0.9998304585908042 0.018413421032011337
vn 0 0.9998304585585126 0.018413422785410045
vn 0 0.9998304585585126 0.018413422785410045
vn 0 0.9998304585585126 0.018413422785410045
vn 0.018413630623025746 -0.9998304547308403 -2.2200695831272384e-16
vn 0.018413630623025746 -0.9998304547308403 -2.2200695831272384e-16
vn 0.018413630623025746 -0.9998304547308403 -2.2200695831272384e-16
vn 0.018413632376424856 -0.9998304546985483 -2.2200695830555356e-16
vn 0.018413632376424856 -0.9998304546985483 -2.2200695830555356e-16
vn 0.018413632376424856 -0.9998304546985483 -2.2200695830555356e-16
vn 0.05914350883868699 -0.9982494905394385 -2.216559137434434e-16
vn 0.05914350883868699 -0.9982494905394385 -2.216559137434434e-16
vn 0.05914350883868699 -0.9982494905394385 -2.216559137434434e-16
vn 0.05914350883868699 -0.9982494905394385 -2.216559137434434e-16
vn 0.05914350883868699 -0.9982494905394385 -2.216559137434434e-16
vn 0.05914350883868699 -0.9982494905394385 -2.216559137434434e-16
vn 0.11550056999155475 -0.9933074138108635 -2.2055855226873778e-16
vn 0.11550056999155475 -0.9933074138108635 -2.2055855226873778e-16
vn 0.11550056999155475 -0.9933074138108635 -2.2055855226873778e-16
vn 0.11550056999155475 -0.9933074138108635 -2.2055855226873778e-16
vn 0.11550056999155475 -0.9933074138108635 -2.2055855226873778e-16
vn 0.11550056999155475 -0.9933074138108635 -2.2055855226873778e-16
vn 0.22249062895019048 -0.9749348286061733 -2.1647901884551086e-16
vn 0.22249062895019048 -0.9749348286061733 -2.1647901884551086e-16
vn 0.22249062895019048 -0.9749348286061733 -2.1647901884551086e-16
vn 0.22249061506772533 -0.9749348317743013 -2.164790195489766e-16
vn 0.22249061506772533 -0.9749348317743013 -2.164790195489766e-16
vn 0.22249061506772533 -0.9749348317743013 -2.164790195489766e-16
vn 0.5917944588208178 -0.8060889023606362 -1.789876918591196e-16
vn 0.5917944588208178 -0.8060889023606362 -1.789876918591196e-16
vn 0.5917944588208178 -0.8060889023606362 -1.789876918591196e-16
vn 0.5917944221919611 -0.8060889292519052 -1.789876978301808e-16
vn 0.5917944221919611 -0.8060889292519052 -1.789876978301808e-16
vn 0.5917944221919611 -0.8060889292519052 -1.789876978301808e-16
vn 1 0 0
vn 1 0 0
vn 1 0 0
vn 1 0 0
vn 1 0 0
vn 1 0 0
vn 0.5917947884806785 0.8060886603389911 1.7898763811951903e-16
vn 0.5917947884806785 0.8060886603389911 1.7898763811951903e-16
vn 0.5917947884806785 0.8060886603389911 1.7898763811951903e-16
vn 0.5917948251095684 0.8060886334476721 1.7898763214844673e-16
vn 0.5917948251095684 0.8060886334476721 1.7898763214844673e-16
vn 0.5917948251095684 0.8060886334476721 1.7898763214844673e-16
vn 0.22249039215509187 0.9749348826453351 2.164790308446152e-16
vn 0.22249039215509187 0.9749348826453351 2.164790308446152e-16
vn 0.22249039215509187 0.9749348826453351 2.164790308446152e-16
vn 0.22249039215509187 0.9749348826453351 2.164790308446152e-16
vn 0.22249039215509187 0.9749348826453351 2.164790308446152e-16
vn 0.22249039215509187 0.9749348826453351 2.164790308446152e-16
vn 0.11550124241966546 0.9933073356215153 2.2055853490721484e-16
vn 0.11550124241966546 0.9933073356215153 2.2055853490721484e-16
vn 0.11550124241966546 0.9933073356215153 2.2055853490721484e-16
vn 0.11550124241966546 0.9933073356215153 2.2055853490721484e-16
vn 0.11550124241966546 0.9933073356215153 2.2055853490721484e-16
vn 0.11550124241966546 0.9933073356215153 2.2055853490721484e-16
vn 0.059143435034647314 0.9982494949121199 2.2165591471437371e-16
vn 0.059143435034647314 0.9982494949121199 2.2165591471437371e-16
vn 0.059143435034647314 0.9982494949121199 2.2165591471437371e-16
vn 0.059143431165742284 0.9982494951413414 2.2165591476527112e-16
vn 0.059143431165742284 0.9982494951413414 2.2165591476527112e-16
vn 0.059143431165742284 0.9982494951413414 2.2165591476527112e-16
vn 0.018413421032011115 0.9998304585908042 2.22006959169808e-16
vn 0.018413421032011115 0.9998304585908042 2.22006959169808e-16
vn 0.018413421032011115 0.9998304585908042 2.22006959169808e-16
vn 0.018413422785409823 0.9998304585585126 2.2200695916263782e-16
vn 0.018413422785409823 0.9998304585585126 2.2200695916263782e-16
vn 0.018413422785409823 0.9998304585585126 2.2200695916263782e-16
vn 0 -0.9998304547308403 -0.018413630623025968
vn 0 -0.9998304547308403 -0.018413630623025968
vn 0 -0.9998304547308403 -0.018413630623025968
vn 0 -0.9998304546985483 -0.018413632376425078
vn 0 -0.9998304546985483 -0.018413632376425078
vn 0 -0.9998304546985483 -0.018413632376425078
vn 0 -0.9982494905394385 -0.059143508838687214
vn 0 -0.9982494905394385 -0.059143508838687214
vn 0 -0.9982494905394385 -0.059143508838687214
vn 0 -0.9982494905394385 -0.059143508838687214
vn 0 -0.9982494905394385 -0.059143508838687214
vn 0 -0.9982494905394385 -0.059143508838687214
vn 0 -0.9933074138108635 -0.11550056999155497
vn 0 -0.9933074138108635 -0.11550056999155497
vn 0 -0.9933074138108635 -0.11550056999155497
vn 0 -0.9933074138108635 -0.11550056999155497
vn 0 -0.9933074138108635 -0.11550056999155497
vn 0 -0.9933074138108635 -0.11550056999155497
vn 0 -0.9749348286061733 -0.2224906289501907
vn 0 -0.9749348286061733 -0.2224906289501907
vn 0 -0.9749348286061733 -0.2224906289501907
vn 0 -0.9749348317743013 -0.22249061506772555
vn 0 -0.9749348317743013 -0.22249061506772555
vn 0 -0.9749348317743013 -0.22249061506772555
vn 0 -0.806088902360636 -0.591794458820818
vn 0 -0.806088902360636 -0.591794458820818
vn 0 -0.806088902360636 -0.591794458820818
vn 0 -0.806088929251905 -0.5917944221919612
vn 0 -0.806088929251905 -0.5917944221919612
vn 0 -0.806088929251905 -0.5917944221919612
vn 0 2.220446049250313e-16 -1
vn 0 2.220446049250313e-16 -1
vn 0 2.220446049250313e-16 -1
vn 0 2.220446049250313e-16 -1
vn 0 2.220446049250313e-16 -1
vn 0 2.220446049250313e-16 -1
vn 0 0.8060886603389912 -0.5917947884806783
vn 0 0.8060886603389912 -0.5917947884806783
vn 0 0.8060886603389912 -0.5917947884806783
vn 0 0.8060886334476723 -0.5917948251095682
vn 0 0.8060886334476723 -0.5917948251095682
vn 0 0.8060886334476723 -0.5917948251095682
vn 0 0.9749348826453351 -0.22249039215509164
vn 0 0.9749348826453351 -0.22249039215509164
vn 0 0.9749348826453351 -0.22249039215509164
vn 0 0.9749348826453351 -0.22249039215509164
vn 0 0.9749348826453351 -0.22249039215509164
vn 0 0.9749348826453351 -0.22249039215509164
vn 0 0.9933073356215155 -0.11550124241966525
vn 0 0.9933073356215155 -0.11550124241966525
vn 0 0.9933073356215155 -0.11550124241966525
vn 0 0.9933073356215155 -0.11550124241966525
vn 0 0.9933073356215155 -0.11550124241966525
vn 0 0.9933073356215155 -0.11550124241966525
vn 0 0.9982494949121199 -0.05914343503464709
vn 0 0.9982494949121199 -0.05914343503464709
vn 0 0.9982494949121199 -0.05914343503464709
vn 0 0.9982494951413414 -0.05914343116574206
vn 0 0.9982494951413414 -0.05914343116574206
vn 0 0.9982494951413414 -0.05914343116574206
vn 0 0.9998304585908044 -0.018413421032010897
vn 0 0.9998304585908044 -0.018413421032010897
vn 0 0.9998304585908044 -0.018413421032010897
vn 0 0.9998304585585126 -0.0184134227854096
vn 0 0.9998304585585126 -0.0184134227854096
vn 0 0.9998304585585126 -0.0184134227854096
vn -0.018413630623025746 -0.9998304547308403 -2.2200695831272384e-16
vn -0.018413630623025746 -0.9998304547308403 -2.2200695831272384e-16
vn -0.018413630623025746 -0.9998304547308403 -2.2200695831272384e-16
vn -0.018413632376424856 -0.9998304546985483 -2.2200695830555356e-16
vn -0.018413632376424856 -0.9998304546985483 -2.2200695830555356e-16
vn -0.018413632376424856 -0.9998304546985483 -2.2200695830555356e-16
vn -0.05914350883868699 -0.9982494905394385 -2.216559137434434e-16
vn -0.05914350883868699 -0.9982494905394385 -2.216559137434434e-16
vn -0.05914350883868699 -0.9982494905394385 -2.216559137434434e-16
vn -0.05914350883868699 -0.9982494905394385 -2.216559137434434e-16
vn -0.05914350883868699 -0.9982494905394385 -2.216559137434434e-16
vn -0.05914350883868699 -0.9982494905394385 -2.216559137434434e-16
vn -0.11550056999155475 -0.9933074138108635 -2.2055855226873778e-16
vn -0.11550056999155475 -0.9933074138108635 -2.2055855226873778e-16
vn -0.11550056999155475 -0.9933074138108635 -2.2055855226873778e-16
vn -0.11550056999155475 -0.9933074138108635 -2.2055855226873778e-16
vn -0.11550056999155475 -0.9933074138108635 -2.2055855226873778e-16
vn -0.11550056999155475 -0.9933074138108635 -2.2055855226873778e-16
vn -0.22249062895019048 -0.9749348286061733 -2.1647901884551086e-16
vn -0.22249062895019048 -0.9749348286061733 -2.1647901884551086e-16
vn -0.22249062895019048 -0.9749348286061733 -2.1647901884551086e-16
vn -0.22249061506772533 -0.9749348317743013 -2.164790195489766e-16
vn -0.22249061506772533 -0.9749348317743013 -2.164790195489766e-16
vn -0.22249061506772533 -0.9749348317743013 -2.164790195489766e-16
vn -0.5917944588208178 -0.8060889023606362 -1.789876918591196e-16
vn -0.5917944588208178 -0.8060889023606362 -1.789876918591196e-16
vn -0.5917944588208178 -0.8060889023606362 -1.789876918591196e-16
vn -0.5917944221919611 -0.8060889292519052 -1.789876978301808e-16
vn -0.5917944221919611 -0.8060889292519052 -1.789876978301808e-16
vn -0.5917944221919611 -0.8060889292519052 -1.789876978301808e-16
vn -1 0 0
vn -1 0 0
vn -1 0 0
vn -1 0 0
vn -1 0 0
vn -1 0 0
vn -0.5917947884806785 0.8060886603389911 1.7898763811951903e-16
vn -0.5917947884806785 0.8060886603389911 1.7898763811951903e-16
vn -0.5917947884806785 0.8060886603389911 1.7898763811951903e-16
vn -0.5917948251095684 0.8060886334476721 1.7898763214844673e-16
vn -0.5917948251095684 0.8060886334476721 1.7898763214844673e-16
vn -0.5917948251095684 0.8060886334476721 1.7898763214844673e-16
vn -0.22249039215509187 0.9749348826453351 2.164790308446152e-16
vn -0.22249039215509187 0.9749348826453351 2.164790308446152e-16
vn -0.22249039215509187 0.9749348826453351 2.164790308446152e-16
vn -0.22249039215509187 0.9749348826453351 2.164790308446152e-16
vn -0.22249039215509187 0.9749348826453351 2.164790308446152e-16
vn -0.22249039215509187 0.9749348826453351 2.164790308446152e-16
vn -0.11550124241966546 0.9933073356215153 2.2055853490721484e-16
vn -0.11550124241966546 0.9933073356215153 2.2055853490721484e-16
vn -0.11550124241966546 0.9933073356215153 2.2055853490721484e-16
vn -0.11550124241966546 0.9933073356215153 2.2055853490721484e-16
vn -0.11550124241966546 0.9933073356215153 2.2055853490721484e-16
vn -0.11550124241966546 0.9933073356215153 2.2055853490721484e-16
vn -0.059143435034647314 0.9982494949121199 2.2165591471437371e-16
vn -0.059143435034647314 0.9982494949121199 2.2165591471437371e-16
vn -0.059143435034647314 0.9982494949121199 2.2165591471437371e-16
vn -0.059143431165742284 0.9982494951413414 2.2165591476527112e-16
vn -0.059143431165742284 0.9982494951413414 2.2165591476527112e-16
vn -0.059143431165742284 0.9982494951413414 2.2165591476527112e-16
vn -0.018413421032011115 0.9998304585908042 2.22006959169808e-16
vn -0.018413421032011115 0.9998304585908042 2.22006959169808e-16
vn -0.018413421032011115 0.9998304585908042 2.22006959169808e-16
vn -0.018413422785409823 0.9998304585585126 2.2200695916263782e-16
vn -0.018413422785409823 0.9998304585585126 2.2200695916263782e-16
vn -0.018413422785409823 0.9998304585585126 2.2200695916263782e-16
f 277/277/277 278/278/278 279/279/279
f 280/280/280 281/281/281 282/282/282
f 283/283/283 284/284/284 285/285/285
f 286/286/286 287/287/287 288/288/288
f 289/289/289 290/290/290 291/291/291
f 292/292/292 293/293/293 294/294/294
f 295/295/295 296/296/296 297/297/297
f 298/298/298 299/299/299 300/300/300
f 301/301/301 302/302/302 303/303/303
f 304/304/304 305/305/305 306/306/306
f 307/307/307 308/308/308 309/309/309
f 310/310/310 311/311/311 312/312/312
f 313/313/313 314/314/314 315/315/315
f 316/316/316 317/317/317 318/318/318
f 319/319/319 320/320/320 321/321/321
f 322/322/322 323/323/323 324/324/324
f 325/325/325 326/326/326 327/327/327
f 328/328/328 329/329/329 330/330/330
f 331/331/331 332/332/332 333/333/333
f 334/334/334 335/335/335 336/336/336
f 337/337/337 338/338/338 339/339/339
f 340/340/340 341/341/341 342/342/342
f 343/343/343 344/344/344 345/345/345
f 346/346/346 347/347/347 348/348/348
f 349/349/349 350/350/350 351/351/351
f 352/352/352 353/353/353 354/354/354
f 355/355/355 356/356/356 357/357/357
f 358/358/358 359/359/359 360/360/360
f 361/361/361 362/362/362 363/363/363
f 364/364/364 365/365/365 366/366/366
f 367/367/367 368/368/368 369/369/369
f 370/370/370 371/371/371 372/372/372
f 373/373/373 374/374/374 375/375/375
f 376/376/376 377/377/377 378/378/378
f 379/379/379 380/380/380 381/381/381
f 382/382/382 383/383/383 384/384/384
f 385/385/385 386/386/386 387/387/387
f 388/388/388 389/389/389 390/390/390
f 391/391/391 392/392/392 393/393/393
f 394/394/394 395/395/395 396/396/396
f 397/397/397 398/398/398 399/399/399
f 400/400/400 401/401/401 402/402/402
f 403/403/403 404/404/404 405/405/405
f 406/406/406 407/407/407 408/408/408
f 409/409/409 410/410/410 411/411/411
f 412/412/412 413/413/413 414/414/414
f 415/415/415 416/416/416 417/417/417
f 418/418/418 419/419/419 420/420/420
f 421/421/421 422/422/422 423/423/423
f 424/424/424 425/425/425 426/426/426
f 427/427/427 428/428/428 429/429/429
f 430/430/430 431/431/431 432/432/432
f 433/433/433 434/434/434 435/435/435
f 436/436/436 437/437/437 438/438/438
f 439/439/439 440/440/440 441/441/441
f 442/442/442 443/443/443 444/444/444
f 445/445/445 446/446/446 447/447/447
f 448/448/448 449/449/449 450/450/450
f 451/451/451 452/452/452 453/453/453
f 454/454/454 455/455/455 456/456/456
f 457/457/457 458/458/458 459/459/459
f 460/460/460 461/461/461 462/462/462
f 463/463/463 464/464/464 465/465/465
f 466/466/466 467/467/467 468/468/468
f 469/469/469 470/470/470 471/471/471
f 472/472/472 473/473/473 474/474/474
f 475/475/475 476/476/476 477/477/477
f 478/478/478 479/479/479 480/480/480
f 481/481/481 482/482/482 483/483/483
f 484/484/484 485/485/485 486/486/486
f 487/487/487 488/488/488 489/489/489
f 490/490/490 491/491/491 492/492/492
f 493/493/493 494/494/494 495/495/495
f 496/496/496 497/497/497 498/498/498
f 499/499/499 500/500/500 501/501/501
f 502/502/502 503/503/503 504/504/504
f 505/505/505 506/506/506 507/507/507
f 508/508/508 509/509/509 510/510/510
f 511/511/511 512/512/512 513/513/513
f 514/514/514 515/515/515 516/516/516
f 517/517/517 518/518/518 519/519/519
f 520/520/520 521/521/521 522/522/522
f 523/523/523 524/524/524 525/525/525
f 526/526/526 527/527/527 528/528/528
f 529/529/529 530/530/530 531/531/531
f 532/532/532 533/533/533 534/534/534
f 535/535/535 536/536/536 537/537/537
f 538/538/538 539/539/539 540/540/540
f 541/541/541 542/542/542 543/543/543
f 544/544/544 545/545/545 546/546/546
f 547/547/547 548/548/548 549/549/549
f 550/550/550 551/551/551 552/552/552
o seam
usemtl blox_seam
v 0.4399999976158142 1.0149999997764825 0.4399999976158142
v 0.4399999976158142 1.0149999997764825 -0.4399999976158142
v 0.4399999976158142 0.9950000002235173 0.4399999976158142
v 0.4399999976158142 0.9950000002235173 -0.4399999976158142
v -0.4399999976158142 1.0149999997764825 -0.4399999976158142
v -0.4399999976158142 1.0149999997764825 0.4399999976158142
v -0.4399999976158142 0.9950000002235173 -0.4399999976158142
v -0.4399999976158142 0.9950000002235173 0.4399999976158142
v -0.4399999976158142 1.0149999997764825 -0.4399999976158142
v 0.4399999976158142 1.0149999997764825 -0.4399999976158142
v -0.4399999976158142 1.0149999997764825 0.4399999976158142
v 0.4399999976158142 1.0149999997764825 0.4399999976158142
v -0.4399999976158142 0.9950000002235173 0.4399999976158142
v 0.4399999976158142 0.9950000002235173 0.4399999976158142
v -0.4399999976158142 0.9950000002235173 -0.4399999976158142
v 0.4399999976158142 0.9950000002235173 -0.4399999976158142
v -0.4399999976158142 1.0149999997764825 0.4399999976158142
v 0.4399999976158142 1.0149999997764825 0.4399999976158142
v -0.4399999976158142 0.9950000002235173 0.4399999976158142
v 0.4399999976158142 0.9950000002235173 0.4399999976158142
v 0.4399999976158142 1.0149999997764825 -0.4399999976158142
v -0.4399999976158142 1.0149999997764825 -0.4399999976158142
v 0.4399999976158142 0.9950000002235173 -0.4399999976158142
v -0.4399999976158142 0.9950000002235173 -0.4399999976158142
vt 0 1
vt 1 1
vt 0 0
vt 1 0
vt 0 1
vt 1 1
vt 0 0
vt 1 0
vt 0 1
vt 1 1
vt 0 0
vt 1 0
vt 0 1
vt 1 1
vt 0 0
vt 1 0
vt 0 1
vt 1 1
vt 0 0
vt 1 0
vt 0 1
vt 1 1
vt 0 0
vt 1 0
vn 1 0 0
vn 1 0 0
vn 1 0 0
vn 1 0 0
vn -1 0 0
vn -1 0 0
vn -1 0 0
vn -1 0 0
vn 0 1 0
vn 0 1 0
vn 0 1 0
vn 0 1 0
vn 0 -1 0
vn 0 -1 0
vn 0 -1 0
vn 0 -1 0
vn 0 0 1
vn 0 0 1
vn 0 0 1
vn 0 0 1
vn 0 0 -1
vn 0 0 -1
vn 0 0 -1
vn 0 0 -1
f 553/553/553 555/555/555 554/554/554
f 555/555/555 556/556/556 554/554/554
f 557/557/557 559/559/559 558/558/558
f 559/559/559 560/560/560 558/558/558
f 561/561/561 563/563/563 562/562/562
f 563/563/563 564/564/564 562/562/562
f 565/565/565 567/567/567 566/566/566
f 567/567/567 568/568/568 566/566/566
f 569/569/569 571/571/571 570/570/570
f 571/571/571 572/572/572 570/570/570
f 573/573/573 575/575/575 574/574/574
f 575/575/575 576/576/576 574/574/574
